<svg width="60" height="84" viewBox="0 0 60 84" fill="none" xmlns="http://www.w3.org/2000/svg">
<path d="M0.5 6.29165C0.5 4.84401 1.01801 3.45566 1.94006 2.43202C2.86211 1.40839 4.11269 0.833313 5.41667 0.833313H54.5833C55.8873 0.833313 57.1379 1.40839 58.0599 2.43202C58.982 3.45566 59.5 4.84401 59.5 6.29165V77.965C59.5001 78.9532 59.2586 79.9229 58.8012 80.7707C58.3438 81.6184 57.6877 82.3124 56.9028 82.7786C56.118 83.2448 55.2339 83.4657 54.3448 83.4177C53.4557 83.3698 52.595 83.0548 51.8546 82.5063L32.7288 68.3529C31.9208 67.7544 30.9713 67.4351 30 67.4351C29.0287 67.4351 28.0792 67.7544 27.2712 68.3529L8.14542 82.5063C7.40496 83.0548 6.54429 83.3698 5.65521 83.4177C4.76613 83.4657 3.882 83.2448 3.09716 82.7786C2.31231 82.3124 1.65618 81.6184 1.19878 80.7707C0.741384 79.9229 0.499867 78.9532 0.5 77.965V6.29165Z" fill="#DCDBDB"/>
</svg>
