<svg width="30" height="31" viewBox="0 0 30 31" fill="none" xmlns="http://www.w3.org/2000/svg">
<path d="M25.6061 17.0373L25.7389 16.8988C28.9572 13.4106 28.1903 9.17625 25.7485 6.56285C24.5085 5.23567 22.8634 4.36347 21.1346 4.22612C19.4251 4.0903 17.5663 4.66664 15.849 6.35954C15.4367 6.76663 14.7816 6.76623 14.3698 6.35834L14.3694 6.35803C12.5446 4.54873 10.602 3.89813 8.84299 3.98774C7.06884 4.07811 5.40734 4.92551 4.17423 6.24514C1.72268 8.86872 1.01886 13.2905 4.61136 17.0373L4.61141 17.0373L13.5186 26.3293C13.5187 26.3294 13.5188 26.3295 13.5189 26.3296C14.4012 27.2487 15.8163 27.2487 16.6986 26.3296L25.6061 17.0373ZM25.6061 17.0373L16.6988 26.3293L25.6061 17.0373Z" fill="white" stroke="#FFD075" stroke-width="1.5"/>
<path d="M23.4375 16.8847C21.86 18.8144 19.695 21.3228 16.935 24.1387C16.0675 24.8233 14.54 24.924 13.5375 24.1387C11.11 22.0488 3.275 14.0869 3.6825 11.5372C3.7925 8.41393 7.2375 5.26226 9.9825 5.53868C12.43 5.7841 12.9675 8.61801 15.2925 8.56118C17.4825 8.50693 17.8575 5.97009 20.1075 5.72468C22.8425 5.42501 26.3225 8.72909 26.3175 11.8627C26.3175 13.0484 25.815 13.9758 23.4375 16.8847Z" fill="white"/>
<path d="M17.23 15.9108L15.4475 17.7682C15.2125 18.0136 14.83 18.0136 14.595 17.7682L12.8125 15.9108C11.255 14.2858 13.41 12.0099 14.9775 13.5651C15.0025 13.5883 15.0375 13.5883 15.0625 13.5651C16.5525 12.0978 18.705 14.3711 17.2275 15.9108H17.23Z" fill="white"/>
<path d="M14.8203 10.6064C14.838 10.1536 15.492 10.1536 15.5097 10.6064L15.165 10.612L14.8203 10.6064ZM15.165 10.623L15.5097 10.6286C15.492 11.0814 14.838 11.0814 14.8203 10.6286L15.165 10.623ZM12.7803 9.67644C12.798 9.2236 13.452 9.2236 13.4697 9.67644L13.125 9.68196L12.7803 9.67644ZM12.7803 9.69856L13.125 9.69303L13.4697 9.69856C13.452 10.1514 12.798 10.1514 12.7803 9.69856ZM10.8753 8.20394C10.893 7.7511 11.547 7.7511 11.5647 8.20394L11.22 8.20946L10.8753 8.20394ZM11.22 8.22053L11.5647 8.22606C11.547 8.67889 10.893 8.67889 10.8753 8.22606L11.22 8.22053ZM5.23531 12.2184C5.25305 11.7656 5.90695 11.7656 5.9247 12.2184L5.58 12.224L5.23531 12.2184ZM5.58 12.235L5.9247 12.2406C5.90695 12.6934 5.25305 12.6934 5.23531 12.2406L5.58 12.235ZM6.56031 13.8769C6.57805 13.4241 7.23195 13.4241 7.2497 13.8769L6.90499 13.8825L6.56031 13.8769ZM6.56031 13.8991L6.90499 13.8935L7.2497 13.8991C7.23195 14.3519 6.57805 14.3519 6.56031 13.8991ZM7.94031 15.8454C7.95805 15.3926 8.61195 15.3926 8.6297 15.8454L8.285 15.851L7.94031 15.8454ZM8.285 15.862L8.6297 15.8676C8.61195 16.3204 7.95805 16.3204 7.94031 15.8676L8.285 15.862ZM9.47031 17.7829C9.48805 17.3301 10.142 17.3301 10.1597 17.7829L9.815 17.7885L9.47031 17.7829ZM9.815 17.7995L10.1597 17.8051C10.142 18.2579 9.48805 18.2579 9.47031 17.8051L9.815 17.7995ZM24.6356 12.0532C25.0708 11.9629 25.219 12.6156 24.8064 12.7428L24.6542 12.1398L24.6356 12.0532ZM24.6111 12.0598L24.7633 12.6628L24.7819 12.7494C24.3467 12.8397 24.1985 12.187 24.6111 12.0598ZM23.1756 13.939C23.6108 13.8488 23.759 14.5015 23.3464 14.6286L23.1942 14.0256L23.1756 13.939ZM23.1511 13.9457L23.3033 14.5487L23.3219 14.6352C22.8867 14.7255 22.7385 14.0728 23.1511 13.9457ZM21.6206 15.7654C22.0558 15.6752 22.204 16.3279 21.7914 16.455L21.6392 15.852L21.6206 15.7654ZM21.5961 15.7721L21.7483 16.3751L21.7669 16.4617C21.3317 16.5519 21.1835 15.8992 21.5961 15.7721ZM20.1306 17.7339C20.5658 17.6437 20.714 18.2964 20.3014 18.4235L20.1492 17.8205L20.1306 17.7339ZM20.1061 17.7406L20.2583 18.3436L20.2769 18.4302C19.8417 18.5204 19.6935 17.8677 20.1061 17.7406ZM11.1028 19.6894C11.1205 19.2366 11.7745 19.2366 11.7922 19.6894L11.4475 19.695L11.1028 19.6894ZM11.4475 19.706L11.7922 19.7116C11.7745 20.1644 11.1205 20.1644 11.1028 19.7116L11.4475 19.706ZM12.7803 21.4099C12.798 20.9571 13.452 20.9571 13.4697 21.4099L13.125 21.4155L12.7803 21.4099ZM13.125 21.4265L13.4697 21.4321C13.452 21.8849 12.798 21.8849 12.7803 21.4321L13.125 21.4265ZM16.8203 21.5649C16.838 21.1121 17.492 21.1121 17.5097 21.5649L17.165 21.5705L16.8203 21.5649ZM17.165 21.5815L17.5097 21.5871C17.492 22.0399 16.838 22.0399 16.8203 21.5871L17.165 21.5815ZM14.8203 23.0529C14.838 22.6001 15.492 22.6001 15.5097 23.0529L15.165 23.0585L14.8203 23.0529ZM15.165 23.0695L15.5097 23.0751C15.492 23.5279 14.838 23.5279 14.8203 23.0751L15.165 23.0695ZM18.4828 19.9039C18.5005 19.451 19.1545 19.451 19.1722 19.9039L18.8275 19.9094L18.4828 19.9039ZM18.8275 19.9204L19.1722 19.926C19.1545 20.3788 18.5005 20.3788 18.4828 19.926L18.8275 19.9204ZM8.9453 7.27394C8.96305 6.8211 9.61695 6.8211 9.6347 7.27394L9.29001 7.27946L8.9453 7.27394ZM8.9453 7.29606L9.29001 7.29053L9.6347 7.29606C9.61695 7.74889 8.96305 7.74889 8.9453 7.29606ZM7.08531 8.20394C7.10305 7.7511 7.75695 7.7511 7.7747 8.20394L7.43 8.20946L7.08531 8.20394ZM7.43 8.22053L7.7747 8.22606C7.75695 8.67889 7.10305 8.67889 7.08531 8.22606L7.43 8.22053ZM5.58031 9.89344C5.59805 9.4406 6.25195 9.4406 6.2697 9.89344L5.925 9.89896L5.58031 9.89344ZM5.58031 9.91556L5.925 9.91003L6.2697 9.91556C6.25195 10.3684 5.59805 10.3684 5.58031 9.91556ZM17.5047 10.0329L17.16 10.0385L16.8153 10.0329C16.833 9.5801 17.487 9.5801 17.5047 10.0329ZM16.8153 10.0551L17.16 10.0495L17.5047 10.0551C17.487 10.5079 16.833 10.5079 16.8153 10.0551ZM19.4097 8.56044L19.065 8.56596L18.7203 8.56044C18.738 8.1076 19.392 8.1076 19.4097 8.56044ZM18.7203 8.58256L19.065 8.57703L19.4097 8.58256C19.392 9.03539 18.738 9.03539 18.7203 8.58256ZM21.3397 7.63044L20.995 7.63596L20.6503 7.63044C20.668 7.1776 21.322 7.1776 21.3397 7.63044ZM20.6503 7.65256L20.995 7.64703L21.3397 7.65256C21.322 8.10539 20.668 8.10539 20.6503 7.65256ZM23.1997 8.56044L22.855 8.56596L22.5103 8.56044C22.528 8.1076 23.182 8.1076 23.1997 8.56044ZM22.5103 8.58256L22.855 8.57703L23.1997 8.58256C23.182 9.03539 22.528 9.03539 22.5103 8.58256ZM24.7047 10.2499L24.36 10.2555L24.0153 10.2499C24.033 9.7971 24.687 9.7971 24.7047 10.2499ZM24.0153 10.2721L24.36 10.2665L24.7047 10.2721C24.687 10.7249 24.033 10.7249 24.0153 10.2721Z" fill="#FFD075" stroke="#FFD075" stroke-width="1.5"/>
</svg>
