<svg width="44" height="34" viewBox="0 0 44 34" fill="none" xmlns="http://www.w3.org/2000/svg">
<path d="M31.9167 12.75V12H31.1667H19.0833V9.25H33C33.2486 9.25 33.5139 9.36354 33.7285 9.61232C33.9461 9.86456 34.0833 10.2275 34.0833 10.625V23.375V24.125H34.8333H38.8981L32.9479 32.6796L27.0893 24.125H31.1667H31.9167V23.375V12.75ZM12.0833 29.75V30.5H12.8333H24.9167V33.25H11C10.7514 33.25 10.4861 33.1365 10.2715 32.8877C10.0539 32.6354 9.91666 32.2725 9.91666 31.875V19.125V18.375H9.16666H5.0956L11 9.82034L16.9044 18.375H12.8333H12.0833V19.125V29.75Z" stroke="#FFD075" stroke-width="1.5"/>
</svg>
