<svg width="22" height="28" viewBox="0 0 22 28" fill="none" xmlns="http://www.w3.org/2000/svg">
<path d="M21.5416 26.25H3.66659C3.18035 26.25 2.71404 26.0656 2.37022 25.7374C2.02641 25.4093 1.83325 24.9641 1.83325 24.5C1.83325 24.0359 2.02641 23.5908 2.37022 23.2626C2.71404 22.9344 3.18035 22.75 3.66659 22.75H21.5416C21.6631 22.75 21.7797 22.7961 21.8657 22.8781C21.9516 22.9602 21.9999 23.0715 21.9999 23.1875V25.8125C21.9999 25.9285 21.9516 26.0398 21.8657 26.1219C21.7797 26.2039 21.6631 26.25 21.5416 26.25ZM3.66659 23.625C3.42347 23.625 3.19031 23.7172 3.0184 23.8813C2.8465 24.0454 2.74992 24.2679 2.74992 24.5C2.74992 24.7321 2.8465 24.9546 3.0184 25.1187C3.19031 25.2828 3.42347 25.375 3.66659 25.375H21.0833V23.625H3.66659ZM15.5833 13.5625H6.41658C6.29503 13.5625 6.17845 13.5164 6.09249 13.4344C6.00654 13.3523 5.95825 13.241 5.95825 13.125V8.64063C5.02295 8.42817 4.21248 7.87355 3.70141 7.09623C3.19033 6.31891 3.01955 5.38108 3.22584 4.48474C3.43212 3.58839 3.99897 2.80523 4.8043 2.30396C5.60963 1.80268 6.58901 1.62338 7.53148 1.80469C9.15226 -0.601563 12.8464 -0.601563 14.4684 1.80469C15.4108 1.62338 16.3902 1.80268 17.1955 2.30396C18.0009 2.80523 18.5677 3.58839 18.774 4.48474C18.9803 5.38108 18.8095 6.31891 18.2984 7.09623C17.7874 7.87355 16.9769 8.42817 16.0416 8.64063V13.125C16.0416 13.241 15.9933 13.3523 15.9073 13.4344C15.8214 13.5164 15.7048 13.5625 15.5833 13.5625ZM6.87492 12.6875H15.1249V8.28078C15.1249 8.17545 15.1647 8.07366 15.237 7.9941C15.3093 7.91453 15.4093 7.86253 15.5185 7.84766C15.8917 7.79657 16.2499 7.67278 16.5709 7.48398C16.8918 7.29518 17.1687 7.0454 17.3843 6.75016C17.5998 6.45492 17.7495 6.12052 17.824 5.76774C17.8984 5.41495 17.8961 5.05132 17.8171 4.69943C17.7382 4.34754 17.5843 4.01491 17.3649 3.72219C17.1456 3.42948 16.8656 3.18294 16.5422 2.99788C16.2189 2.81283 15.8591 2.69322 15.4853 2.64648C15.1115 2.59973 14.7316 2.62686 14.3692 2.72617C14.2679 2.75353 14.1597 2.74671 14.063 2.70687C13.9662 2.66703 13.8869 2.59659 13.8381 2.50742C13.5658 2.01414 13.1575 1.60121 12.6573 1.31316C12.1571 1.02511 11.5841 0.872872 10.9999 0.872872C10.4158 0.872872 9.8427 1.02511 9.34253 1.31316C8.84235 1.60121 8.43406 2.01414 8.16169 2.50742C8.11299 2.59659 8.03359 2.66703 7.93686 2.70687C7.84013 2.74671 7.73197 2.75353 7.6306 2.72617C7.26823 2.62686 6.88833 2.59973 6.51452 2.64648C6.1407 2.69322 5.78094 2.81283 5.4576 2.99788C5.13425 3.18294 4.85422 3.42948 4.6349 3.72219C4.41558 4.01491 4.26166 4.34754 4.1827 4.69943C4.10373 5.05132 4.10141 5.41495 4.17588 5.76774C4.25035 6.12052 4.40001 6.45492 4.61558 6.75016C4.83115 7.0454 5.10801 7.29518 5.42897 7.48398C5.74993 7.67278 6.10813 7.79657 6.48133 7.84766C6.59056 7.86253 6.69051 7.91453 6.76281 7.9941C6.83512 8.07366 6.87492 8.17545 6.87492 8.28078V12.6875Z" fill="white"/>
<path d="M16.5 15.75H5.49996C5.3784 15.75 5.26182 15.7039 5.17587 15.6219C5.08991 15.5398 5.04163 15.4285 5.04163 15.3125V13.125C5.04163 13.009 5.08991 12.8977 5.17587 12.8157C5.26182 12.7336 5.3784 12.6875 5.49996 12.6875H16.5C16.6215 12.6875 16.7381 12.7336 16.8241 12.8157C16.91 12.8977 16.9583 13.009 16.9583 13.125V15.3125C16.9583 15.4285 16.91 15.5398 16.8241 15.6219C16.7381 15.7039 16.6215 15.75 16.5 15.75ZM5.95829 14.875H16.0416V13.5625H5.95829V14.875ZM11 11.375C10.8784 11.375 10.7618 11.3289 10.6759 11.2469C10.5899 11.1648 10.5416 11.0535 10.5416 10.9375V8.31252C10.5416 8.19648 10.5899 8.0852 10.6759 8.00316C10.7618 7.92111 10.8784 7.87502 11 7.87502C11.1215 7.87502 11.2381 7.92111 11.3241 8.00316C11.41 8.0852 11.4583 8.19648 11.4583 8.31252V10.9375C11.4583 11.0535 11.41 11.1648 11.3241 11.2469C11.2381 11.3289 11.1215 11.375 11 11.375ZM8.70829 11.375C8.58674 11.375 8.47016 11.3289 8.3842 11.2469C8.29825 11.1648 8.24996 11.0535 8.24996 10.9375V8.31252C8.24996 8.19648 8.29825 8.0852 8.3842 8.00316C8.47016 7.92111 8.58674 7.87502 8.70829 7.87502C8.82985 7.87502 8.94643 7.92111 9.03238 8.00316C9.11834 8.0852 9.16663 8.19648 9.16663 8.31252V10.9375C9.16663 11.0535 9.11834 11.1648 9.03238 11.2469C8.94643 11.3289 8.82985 11.375 8.70829 11.375ZM13.2916 11.375C13.1701 11.375 13.0535 11.3289 12.9675 11.2469C12.8816 11.1648 12.8333 11.0535 12.8333 10.9375V8.31252C12.8333 8.19648 12.8816 8.0852 12.9675 8.00316C13.0535 7.92111 13.1701 7.87502 13.2916 7.87502C13.4132 7.87502 13.5298 7.92111 13.6157 8.00316C13.7017 8.0852 13.75 8.19648 13.75 8.31252V10.9375C13.75 11.0535 13.7017 11.1648 13.6157 11.2469C13.5298 11.3289 13.4132 11.375 13.2916 11.375ZM15.5833 17.9375H5.95829C5.83674 17.9375 5.72016 17.8914 5.6342 17.8094C5.54825 17.7273 5.49996 17.616 5.49996 17.5C5.49996 17.384 5.54825 17.2727 5.6342 17.1907C5.72016 17.1086 5.83674 17.0625 5.95829 17.0625H15.5833C15.7049 17.0625 15.8214 17.1086 15.9074 17.1907C15.9933 17.2727 16.0416 17.384 16.0416 17.5C16.0416 17.616 15.9933 17.7273 15.9074 17.8094C15.8214 17.8914 15.7049 17.9375 15.5833 17.9375ZM13.75 19.6875H8.24996C8.1284 19.6875 8.01182 19.6414 7.92587 19.5594C7.83991 19.4773 7.79163 19.366 7.79163 19.25C7.79163 19.134 7.83991 19.0227 7.92587 18.9407C8.01182 18.8586 8.1284 18.8125 8.24996 18.8125H13.75C13.8715 18.8125 13.9881 18.8586 14.0741 18.9407C14.16 19.0227 14.2083 19.134 14.2083 19.25C14.2083 19.366 14.16 19.4773 14.0741 19.5594C13.9881 19.6414 13.8715 19.6875 13.75 19.6875Z" fill="white"/>
<path d="M3.66662 3.5625H21.0416V23.5625H0.958282V6.125C0.958282 5.45309 1.23769 4.80371 1.74322 4.32116C2.24954 3.83786 2.94101 3.5625 3.66662 3.5625Z" fill="white" stroke="#FFD075"/>
<mask id="path-4-inside-1_358_1151" fill="white">
<path d="M21.5417 24.5H0.458333C0.336776 24.5 0.220197 24.4539 0.134243 24.3719C0.0482886 24.2898 0 24.1785 0 24.0625V6.125C0.00106153 5.19705 0.387711 4.3074 1.07511 3.65125C1.76252 2.99509 2.69453 2.62601 3.66667 2.625H21.5417C21.6632 2.625 21.7798 2.67109 21.8658 2.75314C21.9517 2.83519 22 2.94647 22 3.0625V19.6875C22 19.8035 21.9517 19.9148 21.8658 19.9969C21.7798 20.0789 21.6632 20.125 21.5417 20.125C21.4201 20.125 21.3035 20.0789 21.2176 19.9969C21.1316 19.9148 21.0833 19.8035 21.0833 19.6875V3.5H3.66667C2.93755 3.50072 2.23852 3.77752 1.72296 4.26964C1.2074 4.76177 0.917425 5.42903 0.916667 6.125V23.625H21.0833V21.4375C21.0833 21.3215 21.1316 21.2102 21.2176 21.1281C21.3035 21.0461 21.4201 21 21.5417 21C21.6632 21 21.7798 21.0461 21.8658 21.1281C21.9517 21.2102 22 21.3215 22 21.4375V24.0625C22 24.1785 21.9517 24.2898 21.8658 24.3719C21.7798 24.4539 21.6632 24.5 21.5417 24.5Z"/>
</mask>
<path d="M21.5417 24.5H0.458333C0.336776 24.5 0.220197 24.4539 0.134243 24.3719C0.0482886 24.2898 0 24.1785 0 24.0625V6.125C0.00106153 5.19705 0.387711 4.3074 1.07511 3.65125C1.76252 2.99509 2.69453 2.62601 3.66667 2.625H21.5417C21.6632 2.625 21.7798 2.67109 21.8658 2.75314C21.9517 2.83519 22 2.94647 22 3.0625V19.6875C22 19.8035 21.9517 19.9148 21.8658 19.9969C21.7798 20.0789 21.6632 20.125 21.5417 20.125C21.4201 20.125 21.3035 20.0789 21.2176 19.9969C21.1316 19.9148 21.0833 19.8035 21.0833 19.6875V3.5H3.66667C2.93755 3.50072 2.23852 3.77752 1.72296 4.26964C1.2074 4.76177 0.917425 5.42903 0.916667 6.125V23.625H21.0833V21.4375C21.0833 21.3215 21.1316 21.2102 21.2176 21.1281C21.3035 21.0461 21.4201 21 21.5417 21C21.6632 21 21.7798 21.0461 21.8658 21.1281C21.9517 21.2102 22 21.3215 22 21.4375V24.0625C22 24.1785 21.9517 24.2898 21.8658 24.3719C21.7798 24.4539 21.6632 24.5 21.5417 24.5Z" fill="white"/>
<path d="M0 24.0625H1H0ZM0 6.125L-1 6.12386V6.125H0ZM3.66667 2.625V1.625L3.66562 1.625L3.66667 2.625ZM21.0833 3.5H22.0833V2.5H21.0833V3.5ZM3.66667 3.5V2.5L3.66567 2.5L3.66667 3.5ZM0.916667 6.125L-0.0833333 6.12391V6.125H0.916667ZM0.916667 23.625H-0.0833333V24.625H0.916667V23.625ZM21.0833 23.625V24.625H22.0833V23.625H21.0833ZM21.5417 23.5H0.458333V25.5H21.5417V23.5ZM0.458333 23.5C0.587368 23.5 0.719946 23.5485 0.824719 23.6485L-0.556233 25.0952C-0.279552 25.3593 0.0861831 25.5 0.458333 25.5V23.5ZM0.824719 23.6485C0.931072 23.75 1 23.8979 1 24.0625H-1C-1 24.4592 -0.834495 24.8296 -0.556233 25.0952L0.824719 23.6485ZM1 24.0625V6.125H-1V24.0625H1ZM0.999999 6.12614C1.00074 5.47841 1.27022 4.84746 1.76559 4.3746L0.384639 2.92789C-0.494794 3.76735 -0.998617 4.9157 -0.999999 6.12386L0.999999 6.12614ZM1.76559 4.3746C2.26254 3.90024 2.94582 3.62575 3.66771 3.625L3.66562 1.625C2.44324 1.62627 1.2625 2.08993 0.384639 2.92789L1.76559 4.3746ZM3.66667 3.625H21.5417V1.625H3.66667V3.625ZM21.5417 3.625C21.4126 3.625 21.2801 3.57651 21.1753 3.4765L22.5562 2.02979C22.2796 1.76568 21.9138 1.625 21.5417 1.625V3.625ZM21.1753 3.4765C21.0689 3.37498 21 3.22709 21 3.0625H23C23 2.66585 22.8345 2.2954 22.5562 2.02979L21.1753 3.4765ZM21 3.0625V19.6875H23V3.0625H21ZM21 19.6875C21 19.5229 21.0689 19.375 21.1753 19.2735L22.5562 20.7202C22.8345 20.4546 23 20.0842 23 19.6875H21ZM21.1753 19.2735C21.2801 19.1735 21.4126 19.125 21.5417 19.125V21.125C21.9138 21.125 22.2796 20.9843 22.5562 20.7202L21.1753 19.2735ZM21.5417 19.125C21.6707 19.125 21.8033 19.1735 21.9081 19.2735L20.5271 20.7202C20.8038 20.9843 21.1695 21.125 21.5417 21.125V19.125ZM21.9081 19.2735C22.0144 19.375 22.0833 19.5229 22.0833 19.6875H20.0833C20.0833 20.0842 20.2488 20.4546 20.5271 20.7202L21.9081 19.2735ZM22.0833 19.6875V3.5H20.0833V19.6875H22.0833ZM21.0833 2.5H3.66667V4.5H21.0833V2.5ZM3.66567 2.5C2.6863 2.50097 1.73852 2.87235 1.03248 3.54629L2.41344 4.993C2.73853 4.68269 3.18881 4.50047 3.66766 4.5L3.66567 2.5ZM1.03248 3.54629C0.324881 4.22173 -0.0822691 5.14771 -0.0833327 6.12391L1.91667 6.12609C1.91712 5.71035 2.08992 5.30181 2.41344 4.993L1.03248 3.54629ZM-0.0833333 6.125V23.625H1.91667V6.125H-0.0833333ZM0.916667 24.625H21.0833V22.625H0.916667V24.625ZM22.0833 23.625V21.4375H20.0833V23.625H22.0833ZM22.0833 21.4375C22.0833 21.6021 22.0144 21.75 21.9081 21.8515L20.5271 20.4048C20.2488 20.6704 20.0833 21.0408 20.0833 21.4375H22.0833ZM21.9081 21.8515C21.8033 21.9515 21.6707 22 21.5417 22V20C21.1695 20 20.8038 20.1407 20.5271 20.4048L21.9081 21.8515ZM21.5417 22C21.4126 22 21.2801 21.9515 21.1753 21.8515L22.5562 20.4048C22.2796 20.1407 21.9138 20 21.5417 20V22ZM21.1753 21.8515C21.0689 21.75 21 21.6021 21 21.4375H23C23 21.0408 22.8345 20.6704 22.5562 20.4048L21.1753 21.8515ZM21 21.4375V24.0625H23V21.4375H21ZM21 24.0625C21 23.8979 21.0689 23.75 21.1753 23.6485L22.5562 25.0952C22.8345 24.8296 23 24.4592 23 24.0625H21ZM21.1753 23.6485C21.2801 23.5485 21.4126 23.5 21.5417 23.5V25.5C21.9138 25.5 22.2796 25.3593 22.5562 25.0952L21.1753 23.6485Z" fill="#FFD075" mask="url(#path-4-inside-1_358_1151)"/>
<path d="M21.0416 21.9375V27.0625H3.66662C2.94101 27.0625 2.24954 26.7872 1.74322 26.3039C1.23769 25.8213 0.958282 25.1719 0.958282 24.5C0.958282 23.8281 1.23769 23.1787 1.74322 22.6962C2.24954 22.2129 2.94101 21.9375 3.66662 21.9375H21.0416Z" fill="white" stroke="white"/>
<path d="M0.532762 23.8438C0.483453 24.0593 0.458484 24.2794 0.458282 24.5C0.458282 25.3122 0.796303 26.0912 1.39798 26.6655C1.99966 27.2399 2.81571 27.5625 3.66662 27.5625H21.5416V26.25H3.66662C2.93514 26.25 2.22562 26.0114 1.65566 25.5738C1.08569 25.1362 0.689507 24.5258 0.532762 23.8438Z" fill="white"/>
<mask id="path-8-inside-2_358_1151" fill="white">
<path d="M21.5417 28H5.95833C5.83678 28 5.7202 27.9539 5.63424 27.8719C5.54829 27.7898 5.5 27.6785 5.5 27.5625C5.5 27.4465 5.54829 27.3352 5.63424 27.2531C5.7202 27.1711 5.83678 27.125 5.95833 27.125H21.0833V21.875H3.66667C2.93732 21.875 2.23785 22.1516 1.72212 22.6438C1.2064 23.1361 0.916667 23.8038 0.916667 24.5C0.916667 25.1962 1.2064 25.8639 1.72212 26.3562C2.23785 26.8484 2.93732 27.125 3.66667 27.125H4.125C4.24656 27.125 4.36314 27.1711 4.44909 27.2531C4.53505 27.3352 4.58333 27.4465 4.58333 27.5625C4.58333 27.6785 4.53505 27.7898 4.44909 27.8719C4.36314 27.9539 4.24656 28 4.125 28H3.66667C2.69421 28 1.76157 27.6313 1.07394 26.9749C0.386308 26.3185 0 25.4283 0 24.5C0 23.5717 0.386308 22.6815 1.07394 22.0251C1.76157 21.3687 2.69421 21 3.66667 21H21.5417C21.6632 21 21.7798 21.0461 21.8658 21.1281C21.9517 21.2102 22 21.3215 22 21.4375V27.5625C22 27.6785 21.9517 27.7898 21.8658 27.8719C21.7798 27.9539 21.6632 28 21.5417 28Z"/>
</mask>
<path d="M21.5417 28H5.95833C5.83678 28 5.7202 27.9539 5.63424 27.8719C5.54829 27.7898 5.5 27.6785 5.5 27.5625C5.5 27.4465 5.54829 27.3352 5.63424 27.2531C5.7202 27.1711 5.83678 27.125 5.95833 27.125H21.0833V21.875H3.66667C2.93732 21.875 2.23785 22.1516 1.72212 22.6438C1.2064 23.1361 0.916667 23.8038 0.916667 24.5C0.916667 25.1962 1.2064 25.8639 1.72212 26.3562C2.23785 26.8484 2.93732 27.125 3.66667 27.125H4.125C4.24656 27.125 4.36314 27.1711 4.44909 27.2531C4.53505 27.3352 4.58333 27.4465 4.58333 27.5625C4.58333 27.6785 4.53505 27.7898 4.44909 27.8719C4.36314 27.9539 4.24656 28 4.125 28H3.66667C2.69421 28 1.76157 27.6313 1.07394 26.9749C0.386308 26.3185 0 25.4283 0 24.5C0 23.5717 0.386308 22.6815 1.07394 22.0251C1.76157 21.3687 2.69421 21 3.66667 21H21.5417C21.6632 21 21.7798 21.0461 21.8658 21.1281C21.9517 21.2102 22 21.3215 22 21.4375V27.5625C22 27.6785 21.9517 27.7898 21.8658 27.8719C21.7798 27.9539 21.6632 28 21.5417 28Z" fill="white"/>
<path d="M21.0833 27.125V28.125H22.0833V27.125H21.0833ZM21.0833 21.875H22.0833V20.875H21.0833V21.875ZM3.66667 27.125V28.125V27.125ZM0 24.5H-1H0ZM3.66667 21V22V21ZM21.5417 27H5.95833V29H21.5417V27ZM5.95833 27C6.08737 27 6.21994 27.0485 6.32472 27.1485L4.94377 28.5952C5.22045 28.8593 5.58618 29 5.95833 29V27ZM6.32472 27.1485C6.43107 27.25 6.5 27.3979 6.5 27.5625H4.5C4.5 27.9592 4.6655 28.3296 4.94377 28.5952L6.32472 27.1485ZM6.5 27.5625C6.5 27.7271 6.43107 27.875 6.32472 27.9765L4.94377 26.5298C4.6655 26.7954 4.5 27.1658 4.5 27.5625H6.5ZM6.32472 27.9765C6.21994 28.0765 6.08737 28.125 5.95833 28.125V26.125C5.58618 26.125 5.22045 26.2657 4.94377 26.5298L6.32472 27.9765ZM5.95833 28.125H21.0833V26.125H5.95833V28.125ZM22.0833 27.125V21.875H20.0833V27.125H22.0833ZM21.0833 20.875H3.66667V22.875H21.0833V20.875ZM3.66667 20.875C2.68673 20.875 1.7381 21.2461 1.03165 21.9205L2.4126 23.3672C2.7376 23.057 3.18792 22.875 3.66667 22.875V20.875ZM1.03165 21.9205C0.323615 22.5963 -0.0833333 23.5232 -0.0833333 24.5H1.91667C1.91667 24.0844 2.08918 23.6759 2.4126 23.3672L1.03165 21.9205ZM-0.0833333 24.5C-0.0833333 25.4768 0.323615 26.4037 1.03165 27.0795L2.4126 25.6328C2.08918 25.3241 1.91667 24.9156 1.91667 24.5H-0.0833333ZM1.03165 27.0795C1.7381 27.7539 2.68673 28.125 3.66667 28.125V26.125C3.18792 26.125 2.7376 25.943 2.4126 25.6328L1.03165 27.0795ZM3.66667 28.125H4.125V26.125H3.66667V28.125ZM4.125 28.125C3.99597 28.125 3.86339 28.0765 3.75862 27.9765L5.13957 26.5298C4.86288 26.2657 4.49715 26.125 4.125 26.125V28.125ZM3.75862 27.9765C3.65226 27.875 3.58333 27.7271 3.58333 27.5625H5.58333C5.58333 27.1658 5.41783 26.7954 5.13957 26.5298L3.75862 27.9765ZM3.58333 27.5625C3.58333 27.3979 3.65226 27.25 3.75862 27.1485L5.13957 28.5952C5.41783 28.3296 5.58333 27.9592 5.58333 27.5625H3.58333ZM3.75862 27.1485C3.86339 27.0485 3.99597 27 4.125 27V29C4.49715 29 4.86288 28.8593 5.13957 28.5952L3.75862 27.1485ZM4.125 27H3.66667V29H4.125V27ZM3.66667 27C2.9448 27 2.26133 26.7258 1.76442 26.2515L0.383466 27.6982C1.26182 28.5367 2.44361 29 3.66667 29V27ZM1.76442 26.2515C1.26909 25.7787 1 25.1476 1 24.5H-1C-1 25.7089 -0.496475 26.8583 0.383466 27.6982L1.76442 26.2515ZM1 24.5C1 23.8524 1.26909 23.2213 1.76442 22.7485L0.383466 21.3018C-0.496475 22.1417 -1 23.2911 -1 24.5H1ZM1.76442 22.7485C2.26133 22.2742 2.9448 22 3.66667 22V20C2.44361 20 1.26182 20.4633 0.383466 21.3018L1.76442 22.7485ZM3.66667 22H21.5417V20H3.66667V22ZM21.5417 22C21.4126 22 21.2801 21.9515 21.1753 21.8515L22.5562 20.4048C22.2796 20.1407 21.9138 20 21.5417 20V22ZM21.1753 21.8515C21.0689 21.75 21 21.6021 21 21.4375H23C23 21.0408 22.8345 20.6704 22.5562 20.4048L21.1753 21.8515ZM21 21.4375V27.5625H23V21.4375H21ZM21 27.5625C21 27.3979 21.0689 27.25 21.1753 27.1485L22.5562 28.5952C22.8345 28.3296 23 27.9592 23 27.5625H21ZM21.1753 27.1485C21.2801 27.0485 21.4126 27 21.5417 27V29C21.9138 29 22.2796 28.8593 22.5562 28.5952L21.1753 27.1485Z" fill="#FFD075" mask="url(#path-8-inside-2_358_1151)"/>
<path d="M3.66663 25.8125H21.5416V23.1875H3.66663C3.30195 23.1875 2.95222 23.3258 2.69435 23.5719C2.43649 23.8181 2.29163 24.1519 2.29163 24.5C2.29163 24.8481 2.43649 25.182 2.69435 25.4281C2.95222 25.6742 3.30195 25.8125 3.66663 25.8125Z" fill="white"/>
<path d="M3.66663 23.1875C3.30195 23.1875 2.95222 23.3258 2.69435 23.5719C2.43649 23.8181 2.29163 24.1519 2.29163 24.5C2.29149 24.7305 2.35513 24.9568 2.47611 25.1563C2.59676 24.9568 2.7703 24.7911 2.97928 24.6759C3.18825 24.5607 3.42531 24.5001 3.66663 24.5H21.5416V23.1875H3.66663Z" fill="white"/>
<mask id="path-12-inside-3_358_1151" fill="white">
<path d="M21.5416 26.25H3.66659C3.18035 26.25 2.71404 26.0656 2.37022 25.7374C2.02641 25.4092 1.83325 24.9641 1.83325 24.5C1.83325 24.0359 2.02641 23.5908 2.37022 23.2626C2.71404 22.9344 3.18035 22.75 3.66659 22.75H21.5416C21.6631 22.75 21.7797 22.7961 21.8657 22.8781C21.9516 22.9602 21.9999 23.0715 21.9999 23.1875V25.8125C21.9999 25.9285 21.9516 26.0398 21.8657 26.1219C21.7797 26.2039 21.6631 26.25 21.5416 26.25ZM3.66659 23.625C3.42347 23.625 3.19031 23.7172 3.0184 23.8813C2.8465 24.0454 2.74992 24.2679 2.74992 24.5C2.74992 24.7321 2.8465 24.9546 3.0184 25.1187C3.19031 25.2828 3.42347 25.375 3.66659 25.375H21.0833V23.625H3.66659Z"/>
</mask>
<path d="M21.5416 26.25H3.66659C3.18035 26.25 2.71404 26.0656 2.37022 25.7374C2.02641 25.4092 1.83325 24.9641 1.83325 24.5C1.83325 24.0359 2.02641 23.5908 2.37022 23.2626C2.71404 22.9344 3.18035 22.75 3.66659 22.75H21.5416C21.6631 22.75 21.7797 22.7961 21.8657 22.8781C21.9516 22.9602 21.9999 23.0715 21.9999 23.1875V25.8125C21.9999 25.9285 21.9516 26.0398 21.8657 26.1219C21.7797 26.2039 21.6631 26.25 21.5416 26.25ZM3.66659 23.625C3.42347 23.625 3.19031 23.7172 3.0184 23.8813C2.8465 24.0454 2.74992 24.2679 2.74992 24.5C2.74992 24.7321 2.8465 24.9546 3.0184 25.1187C3.19031 25.2828 3.42347 25.375 3.66659 25.375H21.0833V23.625H3.66659Z" fill="white"/>
<path d="M1.83325 24.5H0.833252H1.83325ZM21.0833 25.375V26.375H22.0833V25.375H21.0833ZM21.0833 23.625H22.0833V22.625H21.0833V23.625ZM21.5416 25.25H3.66659V27.25H21.5416V25.25ZM3.66659 25.25C3.43095 25.25 3.21379 25.1602 3.0607 25.0141L1.67975 26.4608C2.21429 26.971 2.92976 27.25 3.66659 27.25V25.25ZM3.0607 25.0141C2.90919 24.8695 2.83325 24.6835 2.83325 24.5H0.833252C0.833252 25.2448 1.14362 25.949 1.67975 26.4608L3.0607 25.0141ZM2.83325 24.5C2.83325 24.3165 2.90919 24.1305 3.0607 23.9859L1.67975 22.5392C1.14362 23.051 0.833252 23.7552 0.833252 24.5H2.83325ZM3.0607 23.9859C3.21379 23.8398 3.43095 23.75 3.66659 23.75V21.75C2.92976 21.75 2.21429 22.029 1.67975 22.5392L3.0607 23.9859ZM3.66659 23.75H21.5416V21.75H3.66659V23.75ZM21.5416 23.75C21.4125 23.75 21.28 23.7015 21.1752 23.6015L22.5562 22.1548C22.2795 21.8907 21.9137 21.75 21.5416 21.75V23.75ZM21.1752 23.6015C21.0688 23.5 20.9999 23.3521 20.9999 23.1875H22.9999C22.9999 22.7908 22.8344 22.4204 22.5562 22.1548L21.1752 23.6015ZM20.9999 23.1875V25.8125H22.9999V23.1875H20.9999ZM20.9999 25.8125C20.9999 25.6479 21.0688 25.5 21.1752 25.3985L22.5562 26.8452C22.8344 26.5796 22.9999 26.2092 22.9999 25.8125H20.9999ZM21.1752 25.3985C21.28 25.2985 21.4125 25.25 21.5416 25.25V27.25C21.9137 27.25 22.2795 27.1093 22.5562 26.8452L21.1752 25.3985ZM3.66659 22.625C3.17288 22.625 2.69056 22.8118 2.32793 23.1579L3.70888 24.6046C3.69912 24.614 3.69004 24.619 3.68348 24.6216C3.67694 24.6241 3.67128 24.625 3.66659 24.625V22.625ZM2.32793 23.1579C1.96371 23.5056 1.74992 23.9873 1.74992 24.5H3.74992C3.74992 24.5486 3.72928 24.5852 3.70888 24.6046L2.32793 23.1579ZM1.74992 24.5C1.74992 25.0127 1.96371 25.4944 2.32793 25.8421L3.70888 24.3954C3.72928 24.4148 3.74992 24.4514 3.74992 24.5H1.74992ZM2.32793 25.8421C2.69056 26.1882 3.17288 26.375 3.66659 26.375V24.375C3.67128 24.375 3.67694 24.3759 3.68348 24.3784C3.69004 24.381 3.69912 24.386 3.70888 24.3954L2.32793 25.8421ZM3.66659 26.375H21.0833V24.375H3.66659V26.375ZM22.0833 25.375V23.625H20.0833V25.375H22.0833ZM21.0833 22.625H3.66659V24.625H21.0833V22.625Z" fill="#FFD075" mask="url(#path-12-inside-3_358_1151)"/>
<path d="M18.3332 5.24998C18.3332 4.77602 18.2179 4.30854 17.9964 3.88433C17.7749 3.46013 17.4533 3.09078 17.0569 2.80537C16.6605 2.51996 16.2001 2.32627 15.7119 2.23954C15.2238 2.15282 14.7212 2.17544 14.2438 2.30561C13.9325 1.74179 13.4659 1.26978 12.8942 0.940528C12.3226 0.611271 11.6676 0.437256 10.9999 0.437256C10.3323 0.437256 9.67726 0.611271 9.1056 0.940528C8.53394 1.26978 8.06731 1.74179 7.75606 2.30561C7.33321 2.18963 6.88989 2.1579 6.45365 2.2124C6.01741 2.26691 5.59758 2.40647 5.22024 2.62242C4.84291 2.83837 4.51613 3.12609 4.26023 3.4677C4.00433 3.80932 3.82477 4.19752 3.73271 4.60818C3.64065 5.01885 3.63805 5.4432 3.72509 5.85486C3.81213 6.26652 3.98693 6.6567 4.23865 7.00113C4.49036 7.34557 4.81359 7.63691 5.18826 7.85705C5.56294 8.07719 5.98104 8.22141 6.41658 8.28077V13.125H15.5832V8.28077C16.3468 8.17557 17.045 7.81129 17.5501 7.25467C18.0551 6.69805 18.3332 5.98636 18.3332 5.24998Z" fill="#F6F6F6"/>
<path d="M18.3332 5.24998C18.3332 5.98636 18.0551 6.69805 17.5501 7.25467C17.045 7.81129 16.3468 8.17557 15.5832 8.28077V13.125H6.41658V8.28077C5.98104 8.22141 5.56294 8.07719 5.18826 7.85705C4.81359 7.63691 4.49036 7.34557 4.23865 7.00113C3.98693 6.6567 3.81213 6.26652 3.72509 5.85486C3.63805 5.4432 3.64065 5.01885 3.73271 4.60818C3.82477 4.19752 4.00433 3.80932 4.26023 3.4677C4.51613 3.12609 4.84291 2.83837 5.22024 2.62242C5.59758 2.40647 6.01741 2.26691 6.45365 2.2124C6.88989 2.1579 7.33321 2.18963 7.75606 2.30561C8.06731 1.74179 8.53394 1.26978 9.1056 0.940528C9.67726 0.611271 10.3323 0.437256 10.9999 0.437256C11.6676 0.437256 12.3226 0.611271 12.8942 0.940528C13.4659 1.26978 13.9325 1.74179 14.2438 2.30561C14.7212 2.17544 15.2238 2.15282 15.7119 2.23954C16.2001 2.32627 16.6605 2.51996 17.0569 2.80537C17.4533 3.09078 17.7749 3.46013 17.9964 3.88433C18.2179 4.30854 18.3332 4.77602 18.3332 5.24998Z" fill="white"/>
<path d="M15.5833 11.8125H6.4166V13.125H15.5833V11.8125Z" fill="white"/>
<mask id="path-17-inside-4_358_1151" fill="white">
<path d="M15.5833 13.5625H6.41666C6.2951 13.5625 6.17853 13.5164 6.09257 13.4344C6.00662 13.3523 5.95833 13.241 5.95833 13.125V8.64063C5.02302 8.42817 4.21255 7.87355 3.70148 7.09623C3.19041 6.31891 3.01963 5.38108 3.22591 4.48474C3.4322 3.58839 3.99905 2.80523 4.80438 2.30396C5.60971 1.80268 6.58908 1.62338 7.53156 1.80469C9.15234 -0.601563 12.8465 -0.601563 14.4684 1.80469C15.4109 1.62338 16.3903 1.80268 17.1956 2.30396C18.0009 2.80523 18.5678 3.58839 18.7741 4.48474C18.9804 5.38108 18.8096 6.31891 18.2985 7.09623C17.7874 7.87355 16.977 8.42817 16.0417 8.64063V13.125C16.0417 13.241 15.9934 13.3523 15.9074 13.4344C15.8215 13.5164 15.7049 13.5625 15.5833 13.5625ZM6.875 12.6875H15.125V8.28078C15.125 8.17545 15.1648 8.07366 15.2371 7.9941C15.3094 7.91453 15.4094 7.86253 15.5186 7.84766C15.8918 7.79657 16.25 7.67278 16.5709 7.48398C16.8919 7.29518 17.1688 7.0454 17.3843 6.75016C17.5999 6.45492 17.7496 6.12052 17.824 5.76774C17.8985 5.41495 17.8962 5.05132 17.8172 4.69943C17.7383 4.34754 17.5843 4.01491 17.365 3.72219C17.1457 3.42948 16.8657 3.18294 16.5423 2.99788C16.219 2.81283 15.8592 2.69322 15.4854 2.64648C15.1116 2.59973 14.7317 2.62686 14.3693 2.72617C14.2679 2.75353 14.1598 2.74671 14.0631 2.70687C13.9663 2.66703 13.8869 2.59659 13.8382 2.50742C13.5659 2.01414 13.1576 1.60121 12.6574 1.31316C12.1572 1.02511 11.5841 0.872872 11 0.872872C10.4158 0.872872 9.84277 1.02511 9.3426 1.31316C8.84243 1.60121 8.43414 2.01414 8.16177 2.50742C8.11306 2.59659 8.03367 2.66703 7.93694 2.70687C7.84021 2.74671 7.73205 2.75353 7.63067 2.72617C7.2683 2.62686 6.88841 2.59973 6.51459 2.64648C6.14078 2.69322 5.78102 2.81283 5.45768 2.99788C5.13433 3.18294 4.8543 3.42948 4.63498 3.72219C4.41566 4.01491 4.26174 4.34754 4.18277 4.69943C4.10381 5.05132 4.10149 5.41495 4.17596 5.76774C4.25042 6.12052 4.40009 6.45492 4.61566 6.75016C4.83122 7.0454 5.10809 7.29518 5.42905 7.48398C5.75001 7.67278 6.10821 7.79657 6.4814 7.84766C6.59064 7.86253 6.69059 7.91453 6.76289 7.9941C6.83519 8.07366 6.875 8.17545 6.875 8.28078V12.6875Z"/>
</mask>
<path d="M15.5833 13.5625H6.41666C6.2951 13.5625 6.17853 13.5164 6.09257 13.4344C6.00662 13.3523 5.95833 13.241 5.95833 13.125V8.64063C5.02302 8.42817 4.21255 7.87355 3.70148 7.09623C3.19041 6.31891 3.01963 5.38108 3.22591 4.48474C3.4322 3.58839 3.99905 2.80523 4.80438 2.30396C5.60971 1.80268 6.58908 1.62338 7.53156 1.80469C9.15234 -0.601563 12.8465 -0.601563 14.4684 1.80469C15.4109 1.62338 16.3903 1.80268 17.1956 2.30396C18.0009 2.80523 18.5678 3.58839 18.7741 4.48474C18.9804 5.38108 18.8096 6.31891 18.2985 7.09623C17.7874 7.87355 16.977 8.42817 16.0417 8.64063V13.125C16.0417 13.241 15.9934 13.3523 15.9074 13.4344C15.8215 13.5164 15.7049 13.5625 15.5833 13.5625ZM6.875 12.6875H15.125V8.28078C15.125 8.17545 15.1648 8.07366 15.2371 7.9941C15.3094 7.91453 15.4094 7.86253 15.5186 7.84766C15.8918 7.79657 16.25 7.67278 16.5709 7.48398C16.8919 7.29518 17.1688 7.0454 17.3843 6.75016C17.5999 6.45492 17.7496 6.12052 17.824 5.76774C17.8985 5.41495 17.8962 5.05132 17.8172 4.69943C17.7383 4.34754 17.5843 4.01491 17.365 3.72219C17.1457 3.42948 16.8657 3.18294 16.5423 2.99788C16.219 2.81283 15.8592 2.69322 15.4854 2.64648C15.1116 2.59973 14.7317 2.62686 14.3693 2.72617C14.2679 2.75353 14.1598 2.74671 14.0631 2.70687C13.9663 2.66703 13.8869 2.59659 13.8382 2.50742C13.5659 2.01414 13.1576 1.60121 12.6574 1.31316C12.1572 1.02511 11.5841 0.872872 11 0.872872C10.4158 0.872872 9.84277 1.02511 9.3426 1.31316C8.84243 1.60121 8.43414 2.01414 8.16177 2.50742C8.11306 2.59659 8.03367 2.66703 7.93694 2.70687C7.84021 2.74671 7.73205 2.75353 7.63067 2.72617C7.2683 2.62686 6.88841 2.59973 6.51459 2.64648C6.14078 2.69322 5.78102 2.81283 5.45768 2.99788C5.13433 3.18294 4.8543 3.42948 4.63498 3.72219C4.41566 4.01491 4.26174 4.34754 4.18277 4.69943C4.10381 5.05132 4.10149 5.41495 4.17596 5.76774C4.25042 6.12052 4.40009 6.45492 4.61566 6.75016C4.83122 7.0454 5.10809 7.29518 5.42905 7.48398C5.75001 7.67278 6.10821 7.79657 6.4814 7.84766C6.59064 7.86253 6.69059 7.91453 6.76289 7.9941C6.83519 8.07366 6.875 8.17545 6.875 8.28078V12.6875Z" fill="white"/>
<path d="M5.95833 8.64063H6.95833V7.8423L6.17984 7.66547L5.95833 8.64063ZM7.53156 1.80469L7.34265 2.78668L7.99171 2.91154L8.36096 2.36335L7.53156 1.80469ZM14.4684 1.80469L13.6392 2.36362L14.0085 2.9115L14.6573 2.78668L14.4684 1.80469ZM16.0417 8.64063L15.8202 7.66547L15.0417 7.8423V8.64063H16.0417ZM6.875 12.6875H5.875V13.6875H6.875V12.6875ZM15.125 12.6875V13.6875H16.125V12.6875H15.125ZM15.125 8.28078H16.125V8.28075L15.125 8.28078ZM15.5186 7.84766L15.6535 8.83851L15.6542 8.83842L15.5186 7.84766ZM14.3693 2.72617L14.6298 3.69165L14.6336 3.69061L14.3693 2.72617ZM13.8382 2.50742L14.7159 2.02808L14.7136 2.02405L13.8382 2.50742ZM11 0.872872V1.87287V0.872872ZM8.16177 2.50742L7.28634 2.02404L7.28414 2.02809L8.16177 2.50742ZM7.63067 2.72617L7.36636 3.69062L7.37016 3.69164L7.63067 2.72617ZM6.4814 7.84766L6.34578 8.83842L6.34645 8.83851L6.4814 7.84766ZM6.875 8.28078L5.875 8.28075V8.28078H6.875ZM15.5833 12.5625H6.41666V14.5625H15.5833V12.5625ZM6.41666 12.5625C6.5457 12.5625 6.67827 12.611 6.78305 12.711L5.4021 14.1577C5.67878 14.4218 6.04451 14.5625 6.41666 14.5625V12.5625ZM6.78305 12.711C6.8894 12.8125 6.95833 12.9604 6.95833 13.125H4.95833C4.95833 13.5217 5.12383 13.8921 5.4021 14.1577L6.78305 12.711ZM6.95833 13.125V8.64063H4.95833V13.125H6.95833ZM6.17984 7.66547C5.48786 7.50828 4.90133 7.1009 4.53706 6.54686L2.86591 7.64561C3.52378 8.6462 4.55818 9.34805 5.73682 9.61578L6.17984 7.66547ZM4.53706 6.54686C4.17402 5.9947 4.05616 5.3359 4.20044 4.70901L2.25139 4.26046C1.98309 5.42626 2.2068 6.64313 2.86591 7.64561L4.53706 6.54686ZM4.20044 4.70901C4.34499 4.0809 4.74545 3.51854 5.33282 3.15293L4.27594 1.45499C3.25265 2.09193 2.5194 3.09588 2.25139 4.26046L4.20044 4.70901ZM5.33282 3.15293C5.92154 2.78648 6.64428 2.65234 7.34265 2.78668L7.72046 0.822692C6.53388 0.594432 5.29788 0.818883 4.27594 1.45499L5.33282 3.15293ZM8.36096 2.36335C9.58523 0.545759 12.4136 0.545253 13.6392 2.36362L15.2976 1.24576C13.2795 -1.74838 8.71945 -1.74888 6.70216 1.24603L8.36096 2.36335ZM14.6573 2.78668C15.3557 2.65234 16.0784 2.78648 16.6672 3.15293L17.7241 1.45499C16.7021 0.818883 15.4661 0.594432 14.2795 0.822692L14.6573 2.78668ZM16.6672 3.15293C17.2545 3.51854 17.655 4.0809 17.7996 4.70901L19.7486 4.26046C19.4806 3.09588 18.7473 2.09193 17.7241 1.45499L16.6672 3.15293ZM17.7996 4.70901C17.9438 5.33591 17.826 5.9947 17.4629 6.54686L19.1341 7.64561C19.7932 6.64313 20.0169 5.42626 19.7486 4.26046L17.7996 4.70901ZM17.4629 6.54686C17.0987 7.1009 16.5121 7.50828 15.8202 7.66547L16.2632 9.61578C17.4418 9.34805 18.4762 8.6462 19.1341 7.64561L17.4629 6.54686ZM15.0417 8.64063V13.125H17.0417V8.64063H15.0417ZM15.0417 13.125C15.0417 12.9604 15.1106 12.8125 15.2169 12.711L16.5979 14.1577C16.8762 13.8921 17.0417 13.5217 17.0417 13.125H15.0417ZM15.2169 12.711C15.3217 12.611 15.4543 12.5625 15.5833 12.5625V14.5625C15.9555 14.5625 16.3212 14.4218 16.5979 14.1577L15.2169 12.711ZM6.875 13.6875H15.125V11.6875H6.875V13.6875ZM16.125 12.6875V8.28078H14.125V12.6875H16.125ZM16.125 8.28075C16.125 8.42977 16.0683 8.56634 15.9772 8.66662L14.497 7.32157C14.2613 7.58098 14.125 7.92114 14.125 8.28081L16.125 8.28075ZM15.9772 8.66662C15.8871 8.76574 15.7707 8.82255 15.6535 8.83851L15.3836 6.8568C15.048 6.90251 14.7317 7.06332 14.497 7.32157L15.9772 8.66662ZM15.6542 8.83842C16.157 8.7696 16.6416 8.6026 17.078 8.34592L16.0639 6.62205C15.8584 6.74297 15.6266 6.82354 15.383 6.8569L15.6542 8.83842ZM17.078 8.34592C17.5144 8.08918 17.8943 7.74751 18.192 7.33984L16.5767 6.16048C16.4432 6.3433 16.2694 6.50119 16.0639 6.62205L17.078 8.34592ZM18.192 7.33984C18.4897 6.93203 18.6984 6.46738 18.8025 5.97427L16.8456 5.5612C16.8007 5.77366 16.7101 5.97781 16.5767 6.16048L18.192 7.33984ZM18.8025 5.97427C18.9066 5.48107 18.9033 4.97233 18.793 4.48047L16.8415 4.91839C16.889 5.13032 16.8904 5.34883 16.8456 5.5612L18.8025 5.97427ZM18.793 4.48047C18.6826 3.98872 18.4681 3.5267 18.1653 3.12257L16.5647 4.32181C16.7006 4.50311 16.7939 4.70636 16.8415 4.91839L18.793 4.48047ZM18.1653 3.12257C17.8626 2.71859 17.4786 2.38151 17.039 2.12997L16.0456 3.8658C16.2528 3.98436 16.4288 4.14037 16.5647 4.32181L18.1653 3.12257ZM17.039 2.12997C16.5996 1.87848 16.113 1.71716 15.6095 1.6542L15.3613 3.63875C15.6054 3.66927 15.8383 3.74718 16.0456 3.8658L17.039 2.12997ZM15.6095 1.6542C15.106 1.59124 14.5941 1.62769 14.105 1.76174L14.6336 3.69061C14.8693 3.62603 15.1172 3.60822 15.3613 3.63875L15.6095 1.6542ZM14.1088 1.7607C14.219 1.73096 14.3363 1.73793 14.4439 1.78223L13.6822 3.63151C13.9832 3.75549 14.3169 3.77609 14.6298 3.69164L14.1088 1.7607ZM14.4439 1.78223C14.5521 1.82678 14.6513 1.90997 14.7159 2.02809L12.9606 2.98676C13.1225 3.28322 13.3806 3.50728 13.6822 3.63151L14.4439 1.78223ZM14.7136 2.02405C14.3509 1.36707 13.8106 0.823335 13.1564 0.446591L12.1583 2.17973C12.5045 2.37909 12.7808 2.66122 12.9628 2.9908L14.7136 2.02405ZM13.1564 0.446591C12.5026 0.070019 11.7571 -0.127129 11 -0.127129V1.87287C11.4112 1.87287 11.8119 1.9802 12.1583 2.17973L13.1564 0.446591ZM11 -0.127129C10.2429 -0.127129 9.49742 0.070019 8.84354 0.446591L9.84166 2.17973C10.1881 1.9802 10.5888 1.87287 11 1.87287V-0.127129ZM8.84354 0.446591C8.18936 0.823335 7.64911 1.36707 7.28635 2.02405L9.03718 2.9908C9.21916 2.66122 9.4955 2.37908 9.84166 2.17973L8.84354 0.446591ZM7.28414 2.02809C7.34865 1.90997 7.44794 1.82678 7.55609 1.78223L8.31778 3.63151C8.6194 3.50728 8.87748 3.28322 9.0394 2.98676L7.28414 2.02809ZM7.55609 1.78223C7.66365 1.73793 7.78097 1.73096 7.89119 1.7607L7.37016 3.69164C7.68313 3.77609 8.01676 3.75549 8.31778 3.63151L7.55609 1.78223ZM7.89499 1.76174C7.40588 1.62769 6.89402 1.59124 6.39052 1.6542L6.63867 3.63875C6.8828 3.60822 7.13072 3.62603 7.36636 3.69061L7.89499 1.76174ZM6.39052 1.6542C5.887 1.71716 5.40039 1.87848 4.96096 2.12997L5.95439 3.8658C6.16165 3.74718 6.39456 3.66927 6.63867 3.63875L6.39052 1.6542ZM4.96096 2.12997C4.52144 2.38151 4.13739 2.71859 3.8347 3.12257L5.43526 4.32181C5.57121 4.14037 5.74722 3.98436 5.95439 3.8658L4.96096 2.12997ZM3.8347 3.12257C3.5319 3.5267 3.31739 3.98872 3.20704 4.48047L5.15851 4.91839C5.20609 4.70636 5.29942 4.50311 5.43526 4.32181L3.8347 3.12257ZM3.20704 4.48047C3.09667 4.97233 3.09341 5.48107 3.19752 5.97427L5.1544 5.5612C5.10957 5.34883 5.11095 5.13032 5.15851 4.91839L3.20704 4.48047ZM3.19752 5.97427C3.30161 6.46738 3.51026 6.93203 3.80802 7.33984L5.42329 6.16048C5.28992 5.97781 5.19924 5.77366 5.1544 5.5612L3.19752 5.97427ZM3.80802 7.33984C4.10567 7.74751 4.48557 8.08918 4.92203 8.34592L5.93607 6.62205C5.7306 6.50119 5.55677 6.3433 5.42329 6.16048L3.80802 7.33984ZM4.92203 8.34592C5.35839 8.6026 5.84304 8.7696 6.34578 8.83842L6.61703 6.8569C6.37338 6.82354 6.14163 6.74297 5.93607 6.62205L4.92203 8.34592ZM6.34645 8.83851C6.22931 8.82255 6.11289 8.76574 6.02282 8.66662L7.50296 7.32157C7.26829 7.06332 6.95197 6.90251 6.61635 6.8568L6.34645 8.83851ZM6.02282 8.66662C5.93169 8.56634 5.87499 8.42977 5.875 8.28075L7.875 8.28081C7.87501 7.92114 7.7387 7.58098 7.50296 7.32157L6.02282 8.66662ZM5.875 8.28078V12.6875H7.875V8.28078H5.875Z" fill="#FFD075" mask="url(#path-17-inside-4_358_1151)"/>
<path d="M6.00003 14.8125V13.625H16V14.8125H6.00003Z" fill="white" stroke="#FFD075"/>
<mask id="path-20-inside-5_358_1151" fill="white">
<path d="M16.5 15.75H5.49996C5.3784 15.75 5.26182 15.7039 5.17587 15.6219C5.08991 15.5398 5.04163 15.4285 5.04163 15.3125V13.125C5.04163 13.009 5.08991 12.8977 5.17587 12.8157C5.26182 12.7336 5.3784 12.6875 5.49996 12.6875H16.5C16.6215 12.6875 16.7381 12.7336 16.8241 12.8157C16.91 12.8977 16.9583 13.009 16.9583 13.125V15.3125C16.9583 15.4285 16.91 15.5398 16.8241 15.6219C16.7381 15.7039 16.6215 15.75 16.5 15.75ZM5.95829 14.875H16.0416V13.5625H5.95829V14.875ZM11 11.375C10.8784 11.375 10.7618 11.3289 10.6759 11.2469C10.5899 11.1648 10.5416 11.0535 10.5416 10.9375V8.31252C10.5416 8.19648 10.5899 8.0852 10.6759 8.00316C10.7618 7.92111 10.8784 7.87502 11 7.87502C11.1215 7.87502 11.2381 7.92111 11.3241 8.00316C11.41 8.0852 11.4583 8.19648 11.4583 8.31252V10.9375C11.4583 11.0535 11.41 11.1648 11.3241 11.2469C11.2381 11.3289 11.1215 11.375 11 11.375ZM8.70829 11.375C8.58674 11.375 8.47016 11.3289 8.3842 11.2469C8.29825 11.1648 8.24996 11.0535 8.24996 10.9375V8.31252C8.24996 8.19648 8.29825 8.0852 8.3842 8.00316C8.47016 7.92111 8.58674 7.87502 8.70829 7.87502C8.82985 7.87502 8.94643 7.92111 9.03238 8.00316C9.11834 8.0852 9.16663 8.19648 9.16663 8.31252V10.9375C9.16663 11.0535 9.11834 11.1648 9.03238 11.2469C8.94643 11.3289 8.82985 11.375 8.70829 11.375ZM13.2916 11.375C13.1701 11.375 13.0535 11.3289 12.9675 11.2469C12.8816 11.1648 12.8333 11.0535 12.8333 10.9375V8.31252C12.8333 8.19648 12.8816 8.0852 12.9675 8.00316C13.0535 7.92111 13.1701 7.87502 13.2916 7.87502C13.4132 7.87502 13.5298 7.92111 13.6157 8.00316C13.7017 8.0852 13.75 8.19648 13.75 8.31252V10.9375C13.75 11.0535 13.7017 11.1648 13.6157 11.2469C13.5298 11.3289 13.4132 11.375 13.2916 11.375ZM15.5833 17.9375H5.95829C5.83674 17.9375 5.72016 17.8914 5.6342 17.8094C5.54825 17.7273 5.49996 17.616 5.49996 17.5C5.49996 17.384 5.54825 17.2727 5.6342 17.1907C5.72016 17.1086 5.83674 17.0625 5.95829 17.0625H15.5833C15.7049 17.0625 15.8214 17.1086 15.9074 17.1907C15.9933 17.2727 16.0416 17.384 16.0416 17.5C16.0416 17.616 15.9933 17.7273 15.9074 17.8094C15.8214 17.8914 15.7049 17.9375 15.5833 17.9375ZM13.75 19.6875H8.24996C8.1284 19.6875 8.01182 19.6414 7.92587 19.5594C7.83991 19.4773 7.79163 19.366 7.79163 19.25C7.79163 19.134 7.83991 19.0227 7.92587 18.9407C8.01182 18.8586 8.1284 18.8125 8.24996 18.8125H13.75C13.8715 18.8125 13.9881 18.8586 14.0741 18.9407C14.16 19.0227 14.2083 19.134 14.2083 19.25C14.2083 19.366 14.16 19.4773 14.0741 19.5594C13.9881 19.6414 13.8715 19.6875 13.75 19.6875Z"/>
</mask>
<path d="M16.5 15.75H5.49996C5.3784 15.75 5.26182 15.7039 5.17587 15.6219C5.08991 15.5398 5.04163 15.4285 5.04163 15.3125V13.125C5.04163 13.009 5.08991 12.8977 5.17587 12.8157C5.26182 12.7336 5.3784 12.6875 5.49996 12.6875H16.5C16.6215 12.6875 16.7381 12.7336 16.8241 12.8157C16.91 12.8977 16.9583 13.009 16.9583 13.125V15.3125C16.9583 15.4285 16.91 15.5398 16.8241 15.6219C16.7381 15.7039 16.6215 15.75 16.5 15.75ZM5.95829 14.875H16.0416V13.5625H5.95829V14.875ZM11 11.375C10.8784 11.375 10.7618 11.3289 10.6759 11.2469C10.5899 11.1648 10.5416 11.0535 10.5416 10.9375V8.31252C10.5416 8.19648 10.5899 8.0852 10.6759 8.00316C10.7618 7.92111 10.8784 7.87502 11 7.87502C11.1215 7.87502 11.2381 7.92111 11.3241 8.00316C11.41 8.0852 11.4583 8.19648 11.4583 8.31252V10.9375C11.4583 11.0535 11.41 11.1648 11.3241 11.2469C11.2381 11.3289 11.1215 11.375 11 11.375ZM8.70829 11.375C8.58674 11.375 8.47016 11.3289 8.3842 11.2469C8.29825 11.1648 8.24996 11.0535 8.24996 10.9375V8.31252C8.24996 8.19648 8.29825 8.0852 8.3842 8.00316C8.47016 7.92111 8.58674 7.87502 8.70829 7.87502C8.82985 7.87502 8.94643 7.92111 9.03238 8.00316C9.11834 8.0852 9.16663 8.19648 9.16663 8.31252V10.9375C9.16663 11.0535 9.11834 11.1648 9.03238 11.2469C8.94643 11.3289 8.82985 11.375 8.70829 11.375ZM13.2916 11.375C13.1701 11.375 13.0535 11.3289 12.9675 11.2469C12.8816 11.1648 12.8333 11.0535 12.8333 10.9375V8.31252C12.8333 8.19648 12.8816 8.0852 12.9675 8.00316C13.0535 7.92111 13.1701 7.87502 13.2916 7.87502C13.4132 7.87502 13.5298 7.92111 13.6157 8.00316C13.7017 8.0852 13.75 8.19648 13.75 8.31252V10.9375C13.75 11.0535 13.7017 11.1648 13.6157 11.2469C13.5298 11.3289 13.4132 11.375 13.2916 11.375ZM15.5833 17.9375H5.95829C5.83674 17.9375 5.72016 17.8914 5.6342 17.8094C5.54825 17.7273 5.49996 17.616 5.49996 17.5C5.49996 17.384 5.54825 17.2727 5.6342 17.1907C5.72016 17.1086 5.83674 17.0625 5.95829 17.0625H15.5833C15.7049 17.0625 15.8214 17.1086 15.9074 17.1907C15.9933 17.2727 16.0416 17.384 16.0416 17.5C16.0416 17.616 15.9933 17.7273 15.9074 17.8094C15.8214 17.8914 15.7049 17.9375 15.5833 17.9375ZM13.75 19.6875H8.24996C8.1284 19.6875 8.01182 19.6414 7.92587 19.5594C7.83991 19.4773 7.79163 19.366 7.79163 19.25C7.79163 19.134 7.83991 19.0227 7.92587 18.9407C8.01182 18.8586 8.1284 18.8125 8.24996 18.8125H13.75C13.8715 18.8125 13.9881 18.8586 14.0741 18.9407C14.16 19.0227 14.2083 19.134 14.2083 19.25C14.2083 19.366 14.16 19.4773 14.0741 19.5594C13.9881 19.6414 13.8715 19.6875 13.75 19.6875Z" fill="white"/>
<path d="M5.95829 14.875H4.95829V15.875H5.95829V14.875ZM16.0416 14.875V15.875H17.0416V14.875H16.0416ZM16.0416 13.5625H17.0416V12.5625H16.0416V13.5625ZM5.95829 13.5625V12.5625H4.95829V13.5625H5.95829ZM9.03238 8.00316L8.34191 8.72651L9.03238 8.00316ZM9.03238 11.2469L8.34191 10.5235L9.03238 11.2469ZM16.5 14.75H5.49996V16.75H16.5V14.75ZM5.49996 14.75C5.62899 14.75 5.76157 14.7985 5.86634 14.8985L4.48539 16.3452C4.76207 16.6093 5.12781 16.75 5.49996 16.75V14.75ZM5.86634 14.8985C5.9727 15 6.04163 15.1479 6.04163 15.3125H4.04163C4.04163 15.7092 4.20713 16.0796 4.48539 16.3452L5.86634 14.8985ZM6.04163 15.3125V13.125H4.04163V15.3125H6.04163ZM6.04163 13.125C6.04163 13.2896 5.9727 13.4375 5.86634 13.539L4.48539 12.0923C4.20713 12.3579 4.04163 12.7284 4.04163 13.125H6.04163ZM5.86634 13.539C5.76157 13.639 5.62899 13.6875 5.49996 13.6875V11.6875C5.12781 11.6875 4.76207 11.8282 4.48539 12.0923L5.86634 13.539ZM5.49996 13.6875H16.5V11.6875H5.49996V13.6875ZM16.5 13.6875C16.3709 13.6875 16.2383 13.639 16.1336 13.539L17.5145 12.0923C17.2378 11.8282 16.8721 11.6875 16.5 11.6875V13.6875ZM16.1336 13.539C16.0272 13.4375 15.9583 13.2896 15.9583 13.125H17.9583C17.9583 12.7284 17.7928 12.3579 17.5145 12.0923L16.1336 13.539ZM15.9583 13.125V15.3125H17.9583V13.125H15.9583ZM15.9583 15.3125C15.9583 15.1479 16.0272 15 16.1336 14.8985L17.5145 16.3452C17.7928 16.0796 17.9583 15.7092 17.9583 15.3125H15.9583ZM16.1336 14.8985C16.2383 14.7985 16.3709 14.75 16.5 14.75V16.75C16.8721 16.75 17.2378 16.6093 17.5145 16.3452L16.1336 14.8985ZM5.95829 15.875H16.0416V13.875H5.95829V15.875ZM17.0416 14.875V13.5625H15.0416V14.875H17.0416ZM16.0416 12.5625H5.95829V14.5625H16.0416V12.5625ZM4.95829 13.5625V14.875H6.95829V13.5625H4.95829ZM11 10.375C11.129 10.375 11.2616 10.4235 11.3663 10.5235L9.98539 11.9702C10.2621 12.2343 10.6278 12.375 11 12.375V10.375ZM11.3663 10.5235C11.4727 10.625 11.5416 10.7729 11.5416 10.9375H9.54163C9.54163 11.3342 9.70713 11.7046 9.98539 11.9702L11.3663 10.5235ZM11.5416 10.9375V8.31252H9.54163V10.9375H11.5416ZM11.5416 8.31252C11.5416 8.4771 11.4727 8.62499 11.3663 8.72651L9.98539 7.2798C9.70713 7.54542 9.54163 7.91586 9.54163 8.31252H11.5416ZM11.3663 8.72651C11.2616 8.82652 11.129 8.87502 11 8.87502V6.87502C10.6278 6.87502 10.2621 7.01569 9.98539 7.2798L11.3663 8.72651ZM11 8.87502C10.8709 8.87502 10.7383 8.82652 10.6336 8.72651L12.0145 7.2798C11.7378 7.01569 11.3721 6.87502 11 6.87502V8.87502ZM10.6336 8.72651C10.5272 8.62499 10.4583 8.4771 10.4583 8.31252H12.4583C12.4583 7.91586 12.2928 7.54542 12.0145 7.2798L10.6336 8.72651ZM10.4583 8.31252V10.9375H12.4583V8.31252H10.4583ZM10.4583 10.9375C10.4583 10.7729 10.5272 10.625 10.6336 10.5235L12.0145 11.9702C12.2928 11.7046 12.4583 11.3342 12.4583 10.9375H10.4583ZM10.6336 10.5235C10.7383 10.4235 10.8709 10.375 11 10.375V12.375C11.3721 12.375 11.7378 12.2343 12.0145 11.9702L10.6336 10.5235ZM8.70829 10.375C8.83733 10.375 8.9699 10.4235 9.07468 10.5235L7.69373 11.9702C7.97041 12.2343 8.33614 12.375 8.70829 12.375V10.375ZM9.07468 10.5235C9.18103 10.625 9.24996 10.7729 9.24996 10.9375H7.24996C7.24996 11.3342 7.41546 11.7046 7.69373 11.9702L9.07468 10.5235ZM9.24996 10.9375V8.31252H7.24996V10.9375H9.24996ZM9.24996 8.31252C9.24996 8.4771 9.18103 8.62499 9.07468 8.72651L7.69373 7.2798C7.41546 7.54542 7.24996 7.91586 7.24996 8.31252H9.24996ZM9.07468 8.72651C8.9699 8.82652 8.83733 8.87502 8.70829 8.87502V6.87502C8.33614 6.87502 7.97041 7.01569 7.69373 7.2798L9.07468 8.72651ZM8.70829 8.87502C8.57926 8.87502 8.44668 8.82652 8.34191 8.72651L9.72286 7.2798C9.44618 7.01569 9.08044 6.87502 8.70829 6.87502V8.87502ZM8.34191 8.72651C8.23555 8.62499 8.16663 8.4771 8.16663 8.31252H10.1666C10.1666 7.91586 10.0011 7.54542 9.72286 7.2798L8.34191 8.72651ZM8.16663 8.31252V10.9375H10.1666V8.31252H8.16663ZM8.16663 10.9375C8.16663 10.7729 8.23555 10.625 8.34191 10.5235L9.72286 11.9702C10.0011 11.7046 10.1666 11.3342 10.1666 10.9375H8.16663ZM8.34191 10.5235C8.44668 10.4235 8.57926 10.375 8.70829 10.375V12.375C9.08044 12.375 9.44618 12.2343 9.72286 11.9702L8.34191 10.5235ZM13.2916 10.375C13.4207 10.375 13.5532 10.4235 13.658 10.5235L12.2771 11.9702C12.5537 12.2343 12.9195 12.375 13.2916 12.375V10.375ZM13.658 10.5235C13.7644 10.625 13.8333 10.7729 13.8333 10.9375H11.8333C11.8333 11.3342 11.9988 11.7046 12.2771 11.9702L13.658 10.5235ZM13.8333 10.9375V8.31252H11.8333V10.9375H13.8333ZM13.8333 8.31252C13.8333 8.4771 13.7644 8.62499 13.658 8.72651L12.2771 7.2798C11.9988 7.54542 11.8333 7.91586 11.8333 8.31252H13.8333ZM13.658 8.72651C13.5532 8.82652 13.4207 8.87502 13.2916 8.87502V6.87502C12.9195 6.87502 12.5537 7.01569 12.2771 7.2798L13.658 8.72651ZM13.2916 8.87502C13.1626 8.87502 13.03 8.82652 12.9252 8.72651L14.3062 7.2798C14.0295 7.01569 13.6638 6.87502 13.2916 6.87502V8.87502ZM12.9252 8.72651C12.8189 8.62499 12.75 8.4771 12.75 8.31252H14.75C14.75 7.91586 14.5845 7.54542 14.3062 7.2798L12.9252 8.72651ZM12.75 8.31252V10.9375H14.75V8.31252H12.75ZM12.75 10.9375C12.75 10.7729 12.8189 10.625 12.9252 10.5235L14.3062 11.9702C14.5845 11.7046 14.75 11.3342 14.75 10.9375H12.75ZM12.9252 10.5235C13.03 10.4235 13.1626 10.375 13.2916 10.375V12.375C13.6638 12.375 14.0295 12.2343 14.3062 11.9702L12.9252 10.5235ZM15.5833 16.9375H5.95829V18.9375H15.5833V16.9375ZM5.95829 16.9375C6.08733 16.9375 6.2199 16.986 6.32468 17.086L4.94373 18.5327C5.22041 18.7968 5.58614 18.9375 5.95829 18.9375V16.9375ZM6.32468 17.086C6.43103 17.1875 6.49996 17.3354 6.49996 17.5H4.49996C4.49996 17.8967 4.66546 18.2671 4.94373 18.5327L6.32468 17.086ZM6.49996 17.5C6.49996 17.6646 6.43103 17.8125 6.32468 17.914L4.94373 16.4673C4.66546 16.7329 4.49996 17.1034 4.49996 17.5H6.49996ZM6.32468 17.914C6.2199 18.014 6.08733 18.0625 5.95829 18.0625V16.0625C5.58614 16.0625 5.22041 16.2032 4.94373 16.4673L6.32468 17.914ZM5.95829 18.0625H15.5833V16.0625H5.95829V18.0625ZM15.5833 18.0625C15.4543 18.0625 15.3217 18.014 15.2169 17.914L16.5979 16.4673C16.3212 16.2032 15.9554 16.0625 15.5833 16.0625V18.0625ZM15.2169 17.914C15.1106 17.8125 15.0416 17.6646 15.0416 17.5H17.0416C17.0416 17.1034 16.8761 16.7329 16.5979 16.4673L15.2169 17.914ZM15.0416 17.5C15.0416 17.3354 15.1106 17.1875 15.2169 17.086L16.5979 18.5327C16.8761 18.2671 17.0416 17.8967 17.0416 17.5H15.0416ZM15.2169 17.086C15.3217 16.986 15.4543 16.9375 15.5833 16.9375V18.9375C15.9554 18.9375 16.3212 18.7968 16.5979 18.5327L15.2169 17.086ZM13.75 18.6875H8.24996V20.6875H13.75V18.6875ZM8.24996 18.6875C8.37899 18.6875 8.51157 18.736 8.61634 18.836L7.23539 20.2827C7.51207 20.5468 7.87781 20.6875 8.24996 20.6875V18.6875ZM8.61634 18.836C8.7227 18.9375 8.79163 19.0854 8.79163 19.25H6.79163C6.79163 19.6467 6.95713 20.0171 7.23539 20.2827L8.61634 18.836ZM8.79163 19.25C8.79163 19.4146 8.7227 19.5625 8.61634 19.664L7.23539 18.2173C6.95713 18.4829 6.79163 18.8534 6.79163 19.25H8.79163ZM8.61634 19.664C8.51157 19.764 8.37899 19.8125 8.24996 19.8125V17.8125C7.87781 17.8125 7.51207 17.9532 7.23539 18.2173L8.61634 19.664ZM8.24996 19.8125H13.75V17.8125H8.24996V19.8125ZM13.75 19.8125C13.6209 19.8125 13.4883 19.764 13.3836 19.664L14.7645 18.2173C14.4878 17.9532 14.1221 17.8125 13.75 17.8125V19.8125ZM13.3836 19.664C13.2772 19.5625 13.2083 19.4146 13.2083 19.25H15.2083C15.2083 18.8534 15.0428 18.4829 14.7645 18.2173L13.3836 19.664ZM13.2083 19.25C13.2083 19.0854 13.2772 18.9375 13.3836 18.836L14.7645 20.2827C15.0428 20.0171 15.2083 19.6467 15.2083 19.25H13.2083ZM13.3836 18.836C13.4883 18.736 13.6209 18.6875 13.75 18.6875V20.6875C14.1221 20.6875 14.4878 20.5468 14.7645 20.2827L13.3836 18.836Z" fill="#FFD075" mask="url(#path-20-inside-5_358_1151)"/>
</svg>
