<svg width="39" height="49" viewBox="0 0 39 49" fill="none" xmlns="http://www.w3.org/2000/svg">
<path d="M30.8518 32.4895L25.7639 31.0568V28.1454C26.7059 27.4649 27.4188 26.541 27.7965 25.4795L28.5179 23.45C29.6128 23.1513 30.4575 22.291 30.6493 21.2213L31.0224 19.1465C31.2129 18.0886 30.8153 17.0265 29.959 16.305L29.9201 16.2718C29.9392 16.1858 29.9544 16.0995 29.9711 16.0132C30.1626 15.811 30.2826 15.5491 30.2826 15.2589V10.5931C32.1832 10.0919 33.5793 8.46777 33.5793 6.54694C33.5793 4.22798 31.5446 2.34129 29.0436 2.34129C27.9133 2.34129 26.8606 2.72959 26.0549 3.38573C24.6184 1.31983 22.121 0 19.3669 0C16.6787 0 14.2287 1.2509 12.7742 3.24853C11.9904 2.67182 11.0053 2.34096 9.95602 2.34096C7.45507 2.34096 5.42032 4.22765 5.42032 6.54662C5.42032 8.46744 6.81647 10.0915 8.71705 10.5928V15.2586C8.71705 15.5494 8.83741 15.812 9.02963 16.0145C9.04626 16.1002 9.06113 16.1858 9.08025 16.2712L9.0406 16.3047C8.18465 17.0258 7.78676 18.0883 7.97685 19.1459L8.34996 21.2209C8.54218 22.2907 9.38716 23.151 10.4813 23.4497L11.2031 25.4791C11.5805 26.5406 12.2931 27.4646 13.2358 28.145V31.0565L8.14783 32.4892C3.27443 33.8615 0 37.9566 0 42.6792V47.8512C0 48.4857 0.554705 49 1.23897 49H37.761C38.4453 49 39 48.4857 39 47.8512V42.6792C38.9996 37.9569 35.7252 33.8615 30.8518 32.4895ZM23.2859 31.8967L19.6713 35.2483C19.3188 35.1279 18.9945 34.9398 18.7209 34.6861L15.713 31.8967V29.5771L15.9647 29.7169C16.9523 30.2661 18.083 30.5566 19.2345 30.5566H19.7641C20.9156 30.5566 22.0463 30.2661 23.0339 29.7169L23.2856 29.5771L23.2859 31.8967ZM7.89827 6.54662C7.89827 5.49463 8.82148 4.6386 9.95602 4.6386C10.7925 4.6386 11.5394 5.10272 11.8587 5.82089C12.0555 6.26368 12.5257 6.55154 13.0439 6.53152C13.56 6.51609 14.0117 6.20558 14.1777 5.75196C14.9328 3.68606 17.0182 2.29763 19.3673 2.29763C21.8452 2.29763 24.0208 3.84985 24.6591 6.07265C24.8032 6.57616 25.2948 6.92605 25.8563 6.92605C25.8573 6.92605 25.8588 6.92605 25.8598 6.92605C26.423 6.92441 26.914 6.57123 27.0556 6.06608C27.291 5.22548 28.1087 4.6386 29.0436 4.6386C30.1782 4.6386 31.1014 5.49463 31.1014 6.54662C31.1014 7.5986 30.1782 8.45464 29.0436 8.45464C28.3594 8.45464 27.8046 8.96898 27.8046 9.60345V14.1098H24.5886V11.2558C24.5886 10.8025 24.1925 10.4352 23.7037 10.4352C23.2148 10.4352 22.8187 10.8025 22.8187 11.2558V14.1098H16.1813V11.2558C16.1813 10.8025 15.7852 10.4352 15.2963 10.4352C14.8075 10.4352 14.4114 10.8025 14.4114 11.2558V14.1098H11.195V9.60345C11.195 8.96898 10.6403 8.45464 9.95602 8.45464C8.82148 8.45464 7.89827 7.59893 7.89827 6.54662ZM11.4477 21.2797L11.2729 21.2623C11.0307 21.2383 10.8336 21.066 10.7936 20.8435L10.4208 18.7684C10.3698 18.4845 10.4767 18.1992 10.7065 18.0056L11.2906 17.5136C11.623 17.2336 11.7617 16.8105 11.6623 16.4077H27.337C27.2376 16.8105 27.3767 17.2342 27.7087 17.5142L28.2921 18.0056C28.5218 18.1992 28.6287 18.4841 28.5778 18.7684L28.2047 20.8438C28.1647 21.0664 27.9675 21.2383 27.7254 21.2623L27.5544 21.2794C27.0064 21.3325 26.5395 21.6805 26.3639 22.1692L25.4428 24.7596C25.1745 25.5146 24.6223 26.155 23.8874 26.5633L21.7595 27.7462C21.1567 28.0814 20.4668 28.2589 19.7637 28.2589H19.2342C18.5315 28.2589 17.8412 28.0817 17.2383 27.7462L15.1105 26.5633C14.3756 26.155 13.8234 25.5146 13.5551 24.76L12.6343 22.1709C12.463 21.6831 11.9957 21.3332 11.4477 21.2797ZM2.47759 42.6792C2.47759 38.9754 5.04545 35.764 8.8675 34.6874L14.5073 33.0991L17.4695 35.846C18.3007 36.6167 19.4055 37.0411 20.5811 37.0411H27.0747C27.5335 37.0411 27.907 37.3874 27.907 37.8128V46.7024H2.47759V42.6792ZM36.5217 46.7024H29.6769V37.8128C29.6769 36.4825 28.5094 35.4 27.0747 35.4H22.0105L24.492 33.0991L30.1318 34.6874C33.9542 35.7637 36.5221 38.9751 36.5221 42.6792L36.5217 46.7024Z" fill="#FCBD77"/>
</svg>
