<svg width="37" height="37" viewBox="0 0 37 37" fill="none" xmlns="http://www.w3.org/2000/svg">
<path d="M36.985 16.0554C37.005 15.9283 37.005 15.7992 36.985 15.6721V15.5532C36.9516 15.4133 36.8939 15.2795 36.8143 15.1568L33.9694 11.1925C33.7508 10.9226 33.4293 10.7406 33.0708 10.684C32.7124 10.6275 32.3442 10.7006 32.042 10.8883C31.7397 11.0761 31.5263 11.3642 31.4456 11.6936C31.365 12.023 31.4231 12.3685 31.6082 12.6593L33.0306 14.5754H28.4503V1.32143C28.4503 0.970964 28.3005 0.634853 28.0337 0.387037C27.767 0.139221 27.4052 0 27.0279 0H1.42406H1.28182H1.05423C0.929094 0.0331152 0.809441 0.0820235 0.698619 0.145357H0.5706C0.464661 0.233543 0.37356 0.335992 0.300337 0.449286C0.264281 0.491408 0.231029 0.535538 0.200767 0.581429C0.0575293 0.804548 -0.0117375 1.06194 0.0016254 1.32143V30.3929C0.00296409 30.5558 0.0367218 30.7171 0.101196 30.8686C0.122232 30.9138 0.145976 30.9579 0.172318 31.0007C0.222385 31.0953 0.284466 31.1841 0.357234 31.265L0.485254 31.3839C0.567922 31.4507 0.658611 31.5083 0.755517 31.5557L0.926209 31.635H1.01156L20.9257 36.9207C21.0582 36.966 21.1972 36.9927 21.3382 37C21.7154 37 22.0772 36.8608 22.344 36.613C22.6107 36.3651 22.7606 36.029 22.7606 35.6786V31.7143H27.0279C27.4052 31.7143 27.767 31.5751 28.0337 31.3272C28.3005 31.0794 28.4503 30.7433 28.4503 30.3929V17.1786H32.9026L31.4801 19.0946C31.3639 19.2383 31.2803 19.4024 31.2347 19.577C31.189 19.7516 31.1822 19.9331 31.2146 20.1103C31.247 20.2874 31.3179 20.4566 31.4231 20.6074C31.5283 20.7582 31.6654 20.8875 31.8262 20.9874C31.9871 21.0873 32.1681 21.1557 32.3583 21.1884C32.5485 21.221 32.7439 21.2173 32.9325 21.1774C33.1212 21.1376 33.299 21.0624 33.4553 20.9565C33.6116 20.8505 33.7429 20.7161 33.8414 20.5614L36.6863 16.5971C36.7519 16.4852 36.7999 16.365 36.8285 16.2404C36.8285 16.2404 36.985 16.0686 36.985 16.0554ZM25.6055 14.5357H22.7606V6.60714C22.7724 6.31055 22.6764 6.01891 22.488 5.77919C22.2997 5.53947 22.0299 5.36565 21.7222 5.28571L11.5803 2.64286H25.6055V14.5357ZM25.6055 29.0714H22.7606V17.1786H25.6055V29.0714Z" fill="#FCBD77"/>
</svg>
