<svg width="354" height="417" viewBox="0 0 354 417" fill="none" xmlns="http://www.w3.org/2000/svg">
<path d="M320.812 13.0312H33.1875C20.9682 13.0312 11.0625 24.6998 11.0625 39.0938V351.844C11.0625 366.238 20.9682 377.906 33.1875 377.906H320.812C333.032 377.906 342.938 366.238 342.938 351.844V39.0938C342.938 24.6998 333.032 13.0312 320.812 13.0312Z" fill="#7D7D7D"/>
<path d="M320.812 13.0312H33.1875C27.3196 13.0313 21.692 15.7771 17.5428 20.6648C13.3935 25.5524 11.0625 32.1815 11.0625 39.0938V110.766H342.938V39.0938C342.938 32.1815 340.606 25.5524 336.457 20.6648C332.308 15.7771 326.68 13.0313 320.812 13.0312Z" fill="#F7E2E2"/>
<path d="M66.375 91.1601H342.938V39.0938C342.938 32.1815 340.606 25.5524 336.457 20.6648C332.308 15.7771 326.68 13.0313 320.812 13.0312H33.1875V52.0664C33.1875 62.4347 36.684 72.3783 42.9079 79.7098C49.1318 87.0413 57.5731 91.1601 66.375 91.1601Z" fill="white"/>
<path d="M313.401 169.406H40.5994C36.5059 169.406 33.1875 173.315 33.1875 178.137V343.113C33.1875 347.935 36.5059 351.844 40.5994 351.844H313.401C317.494 351.844 320.812 347.935 320.812 343.113V178.137C320.812 173.315 317.494 169.406 313.401 169.406Z" fill="#BABABA"/>
<path opacity="0.7" d="M313.401 169.406H51.5845V250.057C51.5808 259.999 53.2402 269.846 56.4678 279.033C59.6953 288.22 64.4279 296.568 70.395 303.6C76.3621 310.632 83.4469 316.211 91.2447 320.016C99.0425 323.822 107.4 325.781 115.841 325.781H320.813V178.137C320.813 175.822 320.032 173.601 318.642 171.963C317.252 170.326 315.366 169.406 313.401 169.406Z" fill="#FFCCCC"/>
<path d="M33.1875 377.906L35.9531 391.068C36.735 394.757 38.5426 398.031 41.0878 400.369C43.633 402.707 46.7693 403.974 49.997 403.969H77.2107C80.4331 403.969 83.5632 402.701 86.1037 400.366C88.6442 398.031 90.4494 394.763 91.2324 391.081L94.0312 377.906H33.1875ZM259.969 377.906L262.734 391.068C263.516 394.757 265.324 398.031 267.869 400.369C270.414 402.707 273.551 403.974 276.778 403.969H303.992C307.214 403.969 310.344 402.701 312.885 400.366C315.425 398.031 317.231 394.763 318.014 391.081L320.812 377.906H259.969Z" fill="#A9A9A9"/>
<path d="M273.797 130.312H80.2031C75.6209 130.312 71.9062 134.688 71.9062 140.086C71.9062 145.484 75.6209 149.859 80.2031 149.859H273.797C278.379 149.859 282.094 145.484 282.094 140.086C282.094 134.688 278.379 130.312 273.797 130.312Z" fill="#F7E2E2"/>
<path d="M262.734 260.625H91.2656C86.6834 260.625 82.9688 265.001 82.9688 270.398C82.9688 275.796 86.6834 280.172 91.2656 280.172H262.734C267.317 280.172 271.031 275.796 271.031 270.398C271.031 265.001 267.317 260.625 262.734 260.625Z" fill="white"/>
<path d="M254.438 280.172L243.375 325.781H110.625L99.5625 280.172H254.438Z" fill="#F7E2E2"/>
<path d="M94.0312 260.625V247.594C94.0312 238.953 96.945 230.667 102.132 224.558C107.318 218.448 114.353 215.016 121.688 215.016C129.022 215.016 136.057 218.448 141.243 224.558C146.43 230.667 149.344 238.953 149.344 247.594C149.344 238.953 152.258 230.667 157.444 224.558C162.631 218.448 169.665 215.016 177 215.016C184.335 215.016 191.369 218.448 196.556 224.558C201.742 230.667 204.656 238.953 204.656 247.594C204.656 238.953 207.57 230.667 212.757 224.558C217.943 218.448 224.978 215.016 232.312 215.016C239.647 215.016 246.682 218.448 251.868 224.558C257.055 230.667 259.969 238.953 259.969 247.594V260.625H94.0312Z" fill="#AEAEAE"/>
<path d="M71.9062 26.0625C60.1745 26.078 48.927 31.5747 40.6313 41.3467C32.3357 51.1187 27.6694 64.3679 27.6562 78.1875H38.7188C38.7188 67.8192 42.2153 57.8755 48.4391 50.544C54.663 43.2125 63.1044 39.0938 71.9062 39.0938C80.7081 39.0938 89.1495 43.2125 95.3734 50.544C101.597 57.8755 105.094 67.8192 105.094 78.1875H116.156C116.143 64.3679 111.477 51.1187 103.181 41.3467C94.8855 31.5747 83.638 26.078 71.9062 26.0625Z" fill="#7D7D7D"/>
<path d="M77.4375 59.8395V45.6094H66.375V59.8395C62.6845 61.3765 59.5741 64.4009 57.5934 68.3781C55.6128 72.3553 54.8896 77.0293 55.5515 81.5739C56.2134 86.1185 58.2179 90.2412 61.2107 93.2132C64.2035 96.1853 67.9919 97.8153 71.9063 97.8153C75.8207 97.8153 79.6091 96.1853 82.6018 93.2132C85.5946 90.2412 87.5991 86.1185 88.2611 81.5739C88.923 77.0293 88.1997 72.3553 86.2191 68.3781C84.2385 64.4009 81.1281 61.3765 77.4375 59.8395ZM71.9063 84.7031C70.8123 84.7031 69.7429 84.321 68.8333 83.605C67.9237 82.8891 67.2147 81.8715 66.7961 80.6809C66.3774 79.4903 66.2679 78.1803 66.4813 76.9164C66.6947 75.6525 67.2215 74.4915 67.9951 73.5803C68.7687 72.669 69.7542 72.0485 70.8272 71.7971C71.9001 71.5457 73.0123 71.6747 74.023 72.1678C75.0337 72.661 75.8976 73.4961 76.5054 74.5676C77.1131 75.6391 77.4375 76.8988 77.4375 78.1875C77.4375 79.9156 76.8548 81.5728 75.8175 82.7947C74.7802 84.0167 73.3733 84.7031 71.9063 84.7031Z" fill="#C0C0C0"/>
<path d="M215.719 32.5781H138.281C132.172 32.5781 127.219 38.4124 127.219 45.6094V78.1875C127.219 85.3845 132.172 91.2188 138.281 91.2188H215.719C221.828 91.2188 226.781 85.3845 226.781 78.1875V45.6094C226.781 38.4124 221.828 32.5781 215.719 32.5781Z" fill="#AEAEAE"/>
<path d="M160.406 45.6094H149.344V78.1875H160.406V45.6094Z" fill="#7D7D7D"/>
<path d="M182.531 52.125H171.469V78.1875H182.531V52.125Z" fill="#7D7D7D"/>
<path d="M204.656 58.6406H193.594V78.1875H204.656V58.6406Z" fill="#7D7D7D"/>
<path d="M259.969 84.7031C269.133 84.7031 276.562 75.9517 276.562 65.1562C276.562 54.3608 269.133 45.6094 259.969 45.6094C250.804 45.6094 243.375 54.3608 243.375 65.1562C243.375 75.9517 250.804 84.7031 259.969 84.7031Z" fill="#C0C0C0"/>
<path d="M309.75 84.7031C318.914 84.7031 326.344 75.9517 326.344 65.1562C326.344 54.3608 318.914 45.6094 309.75 45.6094C300.586 45.6094 293.156 54.3608 293.156 65.1562C293.156 75.9517 300.586 84.7031 309.75 84.7031Z" fill="#C0C0C0"/>
<path d="M33.1875 343.113C33.1875 345.428 33.9684 347.649 35.3584 349.287C36.7484 350.924 38.6336 351.844 40.5994 351.844H313.401C315.366 351.844 317.252 350.924 318.642 349.287C320.032 347.649 320.812 345.428 320.812 343.113V325.781H33.1875V343.113Z" fill="#DEDBDB"/>
<path opacity="0.5" d="M149.344 247.594C149.373 241.404 147.896 235.334 145.088 230.101C142.28 224.869 138.259 220.694 133.5 218.069C128.741 215.445 123.443 214.481 118.233 215.292C113.024 216.103 108.121 218.655 104.104 222.645V237.169C104.104 241.775 105.657 246.192 108.421 249.449C111.185 252.707 114.934 254.538 118.844 254.539H149.344V247.594ZM204.656 247.594C204.684 241.404 203.206 235.334 200.397 230.102C197.589 224.87 193.567 220.696 188.808 218.071C184.049 215.447 178.751 214.483 173.541 215.294C168.332 216.104 163.428 218.656 159.411 222.645V237.169C159.412 241.775 160.966 246.193 163.731 249.45C166.496 252.707 170.246 254.538 174.157 254.539H204.656V247.594ZM259.969 247.594C259.998 241.404 258.521 235.334 255.713 230.101C252.905 224.869 248.884 220.694 244.125 218.069C239.366 215.445 234.068 214.481 228.858 215.292C223.649 216.103 218.746 218.655 214.729 222.645V237.169C214.729 241.775 216.282 246.192 219.046 249.449C221.81 252.707 225.559 254.538 229.469 254.539H259.969V247.594Z" fill="#FF9E9E"/>
<path d="M282.094 140.086C282.094 137.494 281.22 135.008 279.664 133.175C278.108 131.342 275.997 130.312 273.797 130.312H100.763C98.5623 130.312 96.452 131.342 94.896 133.175C93.3401 135.008 92.4659 137.494 92.4659 140.086C92.4659 142.678 93.3401 145.164 94.896 146.997C96.452 148.83 98.5623 149.859 100.763 149.859H273.797C275.997 149.859 278.108 148.83 279.664 146.997C281.22 145.164 282.094 142.678 282.094 140.086Z" fill="white"/>
</svg>
