<svg width="391" height="423" viewBox="0 0 391 423" fill="none" xmlns="http://www.w3.org/2000/svg">
<path d="M161.898 204.891C199.014 204.891 229.102 181.218 229.102 152.016C229.102 122.814 199.014 99.1406 161.898 99.1406C124.783 99.1406 94.6953 122.814 94.6953 152.016C94.6953 181.218 124.783 204.891 161.898 204.891Z" fill="#EEEEEE"/>
<path d="M116.078 244.547C131.262 244.547 143.57 231.231 143.57 214.805C143.57 198.379 131.262 185.062 116.078 185.062C100.895 185.062 88.5859 198.379 88.5859 214.805C88.5859 231.231 100.895 244.547 116.078 244.547Z" fill="#EEEEEE"/>
<path d="M253.539 318.398V376.734C253.785 379.941 252.857 383.123 250.954 385.596C249.052 388.068 246.327 389.633 243.368 389.953H80.4288C77.4696 389.633 74.7451 388.068 72.8426 385.596C70.94 383.123 70.0117 379.941 70.2578 376.734V318.398C70.2578 275.086 93.1934 238.633 124.266 227.92C130.397 225.797 136.797 224.717 143.235 224.719H180.562C187 224.717 193.399 225.797 199.531 227.92C230.603 238.633 253.539 275.086 253.539 318.398Z" fill="#EEEEEE"/>
<path d="M119.133 372.618C118.33 372.619 117.536 372.448 116.795 372.116C116.053 371.784 115.38 371.297 114.812 370.683C114.245 370.069 113.795 369.341 113.488 368.539C113.181 367.737 113.023 366.877 113.023 366.009V319.743C113.023 317.99 113.667 316.309 114.813 315.07C115.959 313.83 117.513 313.134 119.133 313.134C120.753 313.134 122.307 313.83 123.453 315.07C124.599 316.309 125.242 317.99 125.242 319.743V366.009C125.242 366.877 125.085 367.737 124.778 368.539C124.471 369.341 124.021 370.069 123.453 370.683C122.886 371.297 122.212 371.784 121.471 372.116C120.73 372.448 119.935 372.619 119.133 372.618ZM152.17 262.78C144.598 271.793 134.515 277.889 123.451 280.143C123.189 267.966 126.604 256.029 133.179 246.142C140.751 237.129 150.834 231.033 161.898 228.779C162.161 240.955 158.745 252.893 152.17 262.78Z" fill="#A4A4A4"/>
<path d="M171.626 262.78C179.199 271.793 189.282 277.889 200.346 280.143C200.608 267.966 197.193 256.029 190.618 246.142C183.045 237.129 172.963 231.033 161.898 228.779C161.636 240.955 165.051 252.893 171.626 262.78Z" fill="#A4A4A4"/>
<path d="M180.227 198.281H143.57C140.196 198.281 137.461 201.24 137.461 204.891V224.719C137.461 228.369 140.196 231.328 143.57 231.328H180.227C183.601 231.328 186.336 228.369 186.336 224.719V204.891C186.336 201.24 183.601 198.281 180.227 198.281Z" fill="#EEEEEE"/>
<path d="M222.992 356.906H247.43L259.648 370.125H290.195C291.816 370.125 293.37 370.821 294.515 372.061C295.661 373.3 296.305 374.981 296.305 376.734V385.199C296.305 386.584 295.902 387.934 295.155 389.058C294.408 390.183 293.353 391.025 292.139 391.465L278.099 396.562H222.992V356.906ZM70.2578 350.297V383.344C70.2578 388.602 72.1888 393.646 75.626 397.364C79.0632 401.083 83.725 403.172 88.5859 403.172H195.5V350.297H70.2578Z" fill="#EEEEEE"/>
<path d="M216.883 350.297H195.5V403.172H216.883C218.503 403.172 220.057 402.476 221.203 401.236C222.349 399.997 222.992 398.315 222.992 396.562V356.906C222.992 355.153 222.349 353.472 221.203 352.233C220.057 350.993 218.503 350.297 216.883 350.297ZM305.978 246.749C304.401 246.772 302.835 247.024 301.32 247.498C299.795 242.232 296.575 237.731 292.244 234.813C287.914 231.896 282.76 230.755 277.718 231.597C272.676 232.439 268.08 235.209 264.765 239.404C261.449 243.599 259.634 248.94 259.648 254.46C259.648 254.595 259.683 254.72 259.685 254.855C257.244 254.31 254.724 254.325 252.289 254.9C249.853 255.474 247.556 256.595 245.546 258.19C243.536 259.785 241.858 261.819 240.62 264.159C239.381 266.5 238.611 269.095 238.358 271.778C238.104 274.461 238.374 277.171 239.15 279.734C239.926 282.297 241.19 284.655 242.86 286.657C244.531 288.658 246.571 290.258 248.849 291.353C251.127 292.448 253.592 293.014 256.085 293.014C265.177 293.014 299.214 285.303 305.978 285.303C308.321 285.308 310.641 284.813 312.807 283.846C314.973 282.88 316.941 281.46 318.599 279.67C320.257 277.879 321.573 275.753 322.47 273.411C323.368 271.07 323.83 268.561 323.83 266.026C323.83 263.492 323.368 260.982 322.47 258.641C321.573 256.3 320.257 254.173 318.599 252.382C316.941 250.592 314.973 249.173 312.807 248.206C310.641 247.239 308.321 246.744 305.978 246.749Z" fill="#A4A4A4"/>
<path d="M309.801 337.077C300.756 332.673 290.95 330.395 281.031 330.395C271.112 330.395 261.306 332.673 252.261 337.077C250.761 337.098 249.293 336.609 248.065 335.677C246.896 334.815 246.041 333.54 245.646 332.07L235.418 292.414C235.215 291.381 235.237 290.31 235.482 289.288C235.727 288.265 236.189 287.318 236.83 286.521C237.472 285.725 238.276 285.1 239.179 284.698C240.082 284.295 241.059 284.125 242.033 284.202H320.029C321.004 284.125 321.981 284.295 322.884 284.698C323.787 285.1 324.591 285.725 325.232 286.521C325.874 287.318 326.336 288.265 326.581 289.288C326.826 290.31 326.848 291.381 326.645 292.414L316.416 332.07C315.964 333.567 315.074 334.865 313.881 335.767C312.688 336.67 311.256 337.13 309.801 337.077Z" fill="#EEEEEE"/>
<path d="M265.758 311.453C264.476 311.453 263.226 311.017 262.186 310.206C261.146 309.395 260.367 308.251 259.962 306.935L253.852 287.107C253.34 285.444 253.459 283.629 254.183 282.06C254.908 280.492 256.178 279.3 257.715 278.745C259.253 278.19 260.931 278.319 262.38 279.103C263.83 279.887 264.932 281.261 265.445 282.924L271.554 302.752C271.859 303.746 271.941 304.804 271.795 305.839C271.648 306.873 271.277 307.856 270.711 308.705C270.145 309.555 269.401 310.247 268.54 310.724C267.679 311.202 266.726 311.452 265.758 311.453ZM296.305 311.453C295.337 311.452 294.383 311.202 293.522 310.724C292.661 310.247 291.917 309.555 291.351 308.705C290.785 307.856 290.414 306.873 290.268 305.839C290.121 304.804 290.204 303.746 290.509 302.752L296.618 282.924C297.131 281.261 298.233 279.887 299.682 279.103C301.132 278.319 302.81 278.19 304.347 278.745C305.884 279.3 307.155 280.492 307.879 282.06C308.604 283.629 308.723 285.444 308.21 287.107L302.101 306.935C301.695 308.251 300.917 309.395 299.877 310.206C298.837 311.017 297.587 311.453 296.305 311.453Z" fill="#A4A4A4"/>
<path d="M180.227 145.406C175.347 141.969 171.185 137.467 168.008 132.188C161.92 139.91 154.453 146.222 146.054 150.744C137.655 155.266 128.498 157.906 119.133 158.504V167.669C119.439 179.614 124.115 190.939 132.134 199.157C140.152 207.374 150.857 211.814 161.898 211.5C172.94 211.814 183.645 207.375 191.663 199.157C199.682 190.939 204.358 179.614 204.664 167.669V152.566C196.037 152.898 187.519 150.403 180.227 145.406Z" fill="#EEEEEE"/>
<path d="M216.883 119.153C216.92 120.541 216.598 121.913 215.953 123.114C215.308 124.315 214.366 125.297 213.232 125.95C197.232 134.354 179.685 138.746 161.898 138.797C144.096 138.759 126.533 134.36 110.527 125.93C109.403 125.274 108.47 124.293 107.832 123.097C107.194 121.901 106.877 120.536 106.914 119.155V59.4844H216.883V119.153Z" fill="#A4A4A4"/>
<path d="M216.883 101.794C216.92 103.183 216.598 104.555 215.953 105.756C215.308 106.957 214.366 107.939 213.232 108.591C197.232 116.996 179.685 121.387 161.898 121.439C144.096 121.401 126.533 117.002 110.527 108.572C109.403 107.916 108.47 106.935 107.832 105.739C107.194 104.543 106.877 103.178 106.914 101.798V42.1262H216.883V101.794Z" fill="#EEEEEE"/>
<path d="M259.648 66.0937C259.24 76.8844 254.897 87.0606 247.568 94.394C240.24 101.728 230.524 105.621 220.548 105.221C211.119 105.293 201.96 101.811 194.645 95.3733C190.709 100.675 185.724 104.954 180.056 107.893C174.389 110.833 168.184 112.36 161.898 112.36C155.613 112.36 149.408 110.833 143.741 107.893C138.073 104.954 133.088 100.675 129.152 95.3733C121.837 101.811 112.678 105.293 103.248 105.221C93.2726 105.621 83.5568 101.728 76.2285 94.394C68.9002 87.0606 64.5565 76.8844 64.1485 66.0937C64.1281 62.7344 64.5813 59.3912 65.4926 56.1797C68.0072 47.5401 73.0495 40.0189 79.8596 34.7496C86.6696 29.4804 94.8783 26.7487 103.248 26.9662C112.678 26.8945 121.837 30.3764 129.152 36.8142C133.088 31.5124 138.073 27.2339 143.741 24.294C149.408 21.3542 155.613 19.828 161.898 19.828C168.184 19.828 174.389 21.3542 180.056 24.294C185.724 27.2339 190.709 31.5124 194.645 36.8142C201.96 30.3764 211.119 26.8945 220.548 26.9662C228.919 26.7487 237.127 29.4804 243.937 34.7496C250.747 40.0189 255.79 47.5401 258.304 56.1797C259.216 59.3912 259.669 62.7344 259.648 66.0937Z" fill="#A4A4A4"/>
<path d="M258.304 56.1797C255.79 64.8192 250.747 72.3404 243.937 77.6096C237.127 82.8789 228.919 85.6106 220.548 85.3931C211.119 85.4648 201.96 81.9829 194.645 75.5452C190.709 80.8469 185.724 85.1255 180.056 88.0653C174.389 91.0052 168.184 92.5314 161.898 92.5314C155.613 92.5314 149.408 91.0052 143.741 88.0653C138.073 85.1255 133.088 80.8469 129.152 75.5452C121.837 81.9829 112.678 85.4648 103.248 85.3931C94.8784 85.6106 86.6697 82.8789 79.8596 77.6096C73.0496 72.3404 68.0073 64.8192 65.4926 56.1797C68.0072 47.5401 73.0495 40.0189 79.8596 34.7496C86.6696 29.4804 94.8783 26.7487 103.248 26.9662C112.678 26.8945 121.837 30.3764 129.152 36.8142C133.088 31.5124 138.073 27.2339 143.741 24.294C149.408 21.3542 155.613 19.828 161.898 19.828C168.184 19.828 174.389 21.3542 180.056 24.294C185.724 27.2339 190.709 31.5124 194.645 36.8142C201.96 30.3764 211.119 26.8945 220.548 26.9662C228.919 26.7487 237.127 29.4804 243.937 34.7496C250.747 40.0189 255.79 47.5401 258.304 56.1797Z" fill="#EEEEEE"/>
<path d="M290.195 364.327H262.178C261.518 363.61 257.677 359.459 257.119 358.854C249.865 349.986 237.302 350.928 227.402 351.108C226.338 349.106 224.806 347.441 222.96 346.281C221.113 345.121 219.018 344.506 216.883 344.499H107.893C106.293 344.533 104.769 345.244 103.649 346.48C102.529 347.716 101.901 349.377 101.901 351.108C101.901 352.839 102.529 354.501 103.649 355.737C104.77 356.973 106.293 357.684 107.893 357.718H216.883V397.374H88.5859C85.3465 397.37 82.2407 395.976 79.9501 393.498C77.6594 391.02 76.3709 387.66 76.3672 384.155V319.184C76.5994 276.745 99.5575 239.707 133.592 233.113C134.161 233.968 134.823 234.747 135.562 235.433C119.302 247.205 113.535 281.693 119.634 286.131C124.847 291.526 154.185 278.629 161.9 259.263C169.634 278.649 198.906 291.51 204.163 286.131C210.268 281.739 204.481 247.181 188.236 235.432C188.975 234.746 189.636 233.967 190.206 233.112C203.344 235.713 215.343 242.869 224.388 253.5C224.957 254.145 225.642 254.658 226.4 255.008C227.158 255.358 227.973 255.538 228.797 255.537C229.986 255.517 231.145 255.125 232.132 254.408C233.119 253.69 233.893 252.679 234.36 251.495C234.826 250.312 234.966 249.007 234.761 247.74C234.556 246.473 234.016 245.297 233.206 244.354C222.393 231.73 208.093 223.231 192.445 220.126V207.795C230.11 191.834 249.721 153.4 222.992 119.912V112.535C234.164 112.295 244.826 107.43 252.781 98.9412C260.737 90.4526 265.381 78.9868 265.758 66.9051C266.452 30.5419 223.665 8.63185 195.53 28.8334C186.499 19.4143 174.443 14.1512 161.898 14.1512C149.354 14.1512 137.298 19.4143 128.267 28.8334C100.124 8.63436 57.3468 30.5419 58.0398 66.9062C58.4162 78.9877 63.0604 90.4532 71.016 98.9417C78.9716 107.43 89.633 112.295 100.805 112.535V119.914C93.2524 128.52 88.9261 139.856 88.6659 151.719C88.4057 163.583 92.2302 175.128 99.3967 184.112C94.898 186.955 91.0684 190.885 88.2072 195.595C85.3459 200.306 83.5308 205.668 82.9036 211.263C82.2765 216.859 82.8544 222.535 84.5921 227.849C86.3298 233.162 89.1802 237.969 92.9204 241.893C83.6331 252.073 76.3073 264.148 71.3682 277.416C66.4291 290.685 63.975 304.882 64.1484 319.184V384.155C64.1554 391.164 66.7322 397.885 71.3137 402.841C75.8951 407.797 82.1068 410.585 88.5859 410.593H216.883C219.018 410.585 221.113 409.97 222.96 408.81C224.806 407.65 226.338 405.986 227.402 403.983H278.102C278.932 404.375 292.94 398.842 294.085 398.542C296.513 397.662 298.624 395.979 300.118 393.73C301.613 391.481 302.416 388.781 302.414 386.011V377.546C302.41 374.041 301.122 370.681 298.831 368.203C296.541 365.725 293.435 364.331 290.195 364.327ZM113.256 120.832C112.986 117.713 112.908 114.577 113.023 111.446C118.416 110.275 123.577 108.085 128.267 104.977C137.298 114.396 149.354 119.659 161.898 119.659C174.443 119.659 186.499 114.396 195.53 104.977C200.22 108.085 205.38 110.275 210.773 111.446C210.869 114.575 210.804 117.708 210.577 120.829C195.41 128.788 178.773 132.924 161.917 132.924C145.06 132.925 128.423 128.791 113.256 120.832ZM164.398 146.141C166.312 146.099 168.223 146.026 170.127 145.888C177.893 153.835 187.908 158.719 198.555 159.749C204.307 217.646 125.154 221.982 125.242 165.303C139.742 163.181 153.351 156.521 164.398 146.141ZM147.448 259.429C142.783 265.194 136.813 269.548 130.123 272.064C130.98 264.463 133.669 257.24 137.92 251.119C142.471 245.316 148.448 241.027 155.16 238.749C154.289 246.249 151.632 253.375 147.448 259.429ZM193.674 272.064C186.989 269.552 181.023 265.204 176.36 259.445C172.175 253.385 169.513 246.254 168.637 238.749C175.344 241.023 181.317 245.307 185.865 251.106C190.121 257.23 192.814 264.458 193.674 272.064ZM180.227 225.53H143.57L143.592 215.216C155.384 220.113 168.436 220.111 180.227 215.208V225.53ZM208.891 182.194C210.76 172.723 211.394 163.017 210.773 153.356C210.774 152.472 210.61 151.596 210.291 150.782C209.972 149.968 209.505 149.231 208.918 148.615C208.344 147.981 207.652 147.487 206.888 147.165C206.123 146.843 205.304 146.702 204.485 146.75C198.755 146.955 193.058 145.731 187.835 143.172C197.799 140.903 207.445 137.232 216.528 132.255C227.732 148.731 223.718 168.876 208.891 182.194ZM70.2578 66.9051C70.672 57.8678 74.3736 49.3746 80.5547 43.2789C86.7358 37.1832 94.8947 33.98 103.251 34.3681C111.254 34.3282 119.024 37.2784 125.248 42.7202C125.867 43.2801 126.584 43.6983 127.356 43.9496C128.128 44.2009 128.94 44.28 129.741 44.1822C130.541 44.0945 131.317 43.8364 132.025 43.4226C132.732 43.0088 133.357 42.4477 133.863 41.7714C137.236 37.2378 141.505 33.5799 146.357 31.0667C151.209 28.5534 156.519 27.2488 161.899 27.2488C167.278 27.2488 172.589 28.5534 177.44 31.0667C182.292 33.5799 186.561 37.2378 189.934 41.7714C190.44 42.4477 191.065 43.0088 191.772 43.4226C192.48 43.8364 193.256 44.0945 194.056 44.1822C194.858 44.287 195.671 44.2112 196.444 43.9596C197.217 43.708 197.934 43.286 198.549 42.7202C204.773 37.2784 212.543 34.3282 220.546 34.3681C228.902 33.98 237.061 37.1832 243.242 43.2789C249.423 49.3746 253.125 57.8678 253.539 66.9051C253.125 75.9423 249.423 84.4355 243.242 90.5312C237.061 96.6269 228.902 99.8302 220.546 99.442C212.543 99.4819 204.773 96.5317 198.549 91.09C197.931 90.5288 197.214 90.1097 196.442 89.8584C195.669 89.607 194.857 89.5286 194.056 89.628C193.256 89.7157 192.48 89.9738 191.772 90.3876C191.064 90.8013 190.44 91.3625 189.933 92.0388C186.561 96.5723 182.292 100.23 177.44 102.743C172.588 105.257 167.278 106.561 161.898 106.561C156.519 106.561 151.208 105.257 146.357 102.743C141.505 100.23 137.236 96.5723 133.863 92.0388C133.356 91.3628 132.731 90.8019 132.023 90.3881C131.315 89.9744 130.538 89.716 129.738 89.6279C128.937 89.5397 128.129 89.6235 127.358 89.8744C126.588 90.1253 125.871 90.5384 125.248 91.09C119.024 96.5317 111.253 99.4819 103.251 99.442C94.8946 99.8301 86.7357 96.6269 80.5546 90.5312C74.3735 84.4355 70.672 75.9423 70.2578 66.9051ZM107.278 132.242C119.011 138.65 131.645 142.91 144.665 144.852C136.67 149.476 127.838 152.156 118.787 152.704C117.229 152.801 115.764 153.538 114.693 154.765C113.621 155.992 113.024 157.616 113.023 159.304C112.54 166.999 113.176 174.727 114.909 182.209C100.074 168.887 96.0627 148.721 107.278 132.242ZM108.737 193.929C115.869 199.287 123.439 203.928 131.352 207.795V220.127C120.9 222.073 111.003 226.6 102.43 233.355C99.5802 230.741 97.4104 227.368 96.1357 223.568C94.861 219.768 94.5256 215.674 95.1628 211.691C95.8 207.708 97.3876 203.974 99.7685 200.859C102.149 197.743 105.241 195.355 108.737 193.929ZM290.195 386.011L277.105 390.764H229.102V364.327C234.789 364.612 244.289 362.788 248.48 368.2C251.004 370.402 255.888 378.011 259.648 377.546H290.195L290.195 386.011Z" fill="#000406"/>
<path d="M330.539 283.914C329.423 282.362 328.012 281.089 326.401 280.181C328.594 276.179 329.754 271.613 329.759 266.96C329.764 262.308 328.614 257.739 326.43 253.731C324.245 249.723 321.106 246.424 317.34 244.177C313.574 241.929 309.32 240.817 305.021 240.956C302.304 235.725 298.19 231.503 293.217 228.844C288.244 226.185 282.645 225.212 277.153 226.054C271.661 226.896 266.532 229.512 262.437 233.561C258.343 237.609 255.474 242.902 254.207 248.744C250.652 249.07 247.209 250.249 244.127 252.194C241.046 254.14 238.403 256.804 236.392 259.992C234.381 263.18 233.051 266.813 232.5 270.627C231.948 274.44 232.189 278.339 233.204 282.039C231.51 283.593 230.265 285.641 229.615 287.938C228.965 290.235 228.938 292.686 229.537 295L239.763 334.666C240.544 337.603 242.238 340.159 244.56 341.901C245.975 343.118 247.646 343.938 249.424 344.291C251.203 344.643 253.034 344.517 254.756 343.922C263.469 339.895 272.859 337.867 282.334 337.966C291.808 338.065 301.16 340.289 309.8 344.497C312.589 344.55 315.318 343.618 317.574 341.842C319.829 340.066 321.488 337.543 322.299 334.656L332.525 295.006C333.015 293.117 333.09 291.131 332.745 289.206C332.4 287.28 331.645 285.468 330.539 283.914ZM256.104 261.882C260.961 263.128 266.307 261.121 265.764 254.826C265.846 250.923 267.208 247.178 269.608 244.262C272.008 241.345 275.288 239.447 278.862 238.907C282.437 238.366 286.072 239.219 289.119 241.312C292.166 243.405 294.425 246.602 295.493 250.331C295.97 251.968 297.017 253.339 298.413 254.155C299.808 254.97 301.443 255.165 302.969 254.698C305.802 253.894 308.812 254.277 311.395 255.77C313.979 257.263 315.947 259.756 316.905 262.75C317.864 265.744 317.743 269.02 316.566 271.922C315.389 274.823 313.243 277.138 310.557 278.402H244.985C244.424 276.506 244.284 274.493 244.577 272.528C244.87 270.562 245.587 268.699 246.671 267.09C247.754 265.48 249.173 264.17 250.812 263.265C252.451 262.36 254.264 261.886 256.104 261.882ZM310.576 330.999C301.218 326.776 291.179 324.605 281.039 324.611C270.9 324.618 260.863 326.802 251.51 331.038L241.254 291.905C241.302 291.83 320.629 291.743 320.706 291.64L310.576 330.999ZM161.935 307.649C160.72 307.649 159.554 308.171 158.695 309.101C157.836 310.031 157.353 311.291 157.353 312.606C157.353 313.921 157.836 315.182 158.695 316.111C159.554 317.041 160.72 317.563 161.935 317.563C163.15 317.563 164.316 317.041 165.175 316.111C166.034 315.182 166.517 313.921 166.517 312.606C166.517 311.291 166.034 310.031 165.175 309.101C164.316 308.171 163.15 307.649 161.935 307.649ZM161.935 325.086C160.72 325.086 159.554 325.609 158.695 326.538C157.836 327.468 157.353 328.729 157.353 330.043C157.353 331.358 157.836 332.619 158.695 333.549C159.554 334.478 160.72 335 161.935 335C163.15 335 164.316 334.478 165.175 333.549C166.034 332.619 166.517 331.358 166.517 330.043C166.517 328.729 166.034 327.468 165.175 326.538C164.316 325.609 163.15 325.086 161.935 325.086Z" fill="#000406"/>
<path d="M161.917 299.497C166.978 299.497 171.081 295.059 171.081 289.583C171.081 284.108 166.978 279.669 161.917 279.669C156.856 279.669 152.753 284.108 152.753 289.583C152.753 295.059 156.856 299.497 161.917 299.497Z" fill="#000406"/>
</svg>
