<svg width="94" height="96" viewBox="0 0 94 96" fill="none" xmlns="http://www.w3.org/2000/svg">
<path fill-rule="evenodd" clip-rule="evenodd" d="M12.5333 96H47C72.9597 96 94 74.5104 94 48.0032V48C94 21.4896 72.9597 0 47 0C34.5293 0 22.5757 5.05758 13.7711 14.0592C4.95073 23.0608 0 35.2704 0 48V83.2C0 90.2688 5.60867 96 12.5333 96ZM64.4215 29.464C62.5415 27.5184 59.9721 26.4176 57.3088 26.4032C54.6141 26.3888 52.029 27.472 50.1333 29.4096C44.2583 35.3968 31.3645 48.552 26.0692 53.9488C24.1422 55.9008 22.7638 58.3248 22.0431 60.9872L20.6015 66.2864C19.9905 68.5088 20.6015 70.8928 22.1995 72.5248C23.7975 74.1568 26.1321 74.784 28.3098 74.1664C30.0644 73.6672 31.9755 73.1296 33.5108 72.6912C36.1115 71.9536 38.4774 70.544 40.3887 68.5968C45.6527 63.2352 58.4525 50.1904 64.3745 44.1552C68.3225 40.1168 68.3692 33.5744 64.4525 29.4912L64.4215 29.464ZM46.8589 41.7952L30.4873 58.4784C29.3436 59.6496 28.5132 61.104 28.0745 62.7008L26.6333 68L31.8348 66.5248C33.4014 66.0816 34.8113 65.2368 35.9706 64.0688L52.3108 47.4048C51.8095 46.0272 51.1204 44.8624 50.2117 43.9248C49.3031 42.9888 48.1749 42.288 46.8589 41.7952ZM57.0108 42.6048L59.9407 39.6256C61.4447 38.0832 61.4761 35.5952 60.0191 34.0192L59.972 33.968C59.2514 33.2288 58.2801 32.808 57.2617 32.8032C56.2591 32.7984 55.2721 33.2064 54.5671 33.9392L51.5589 36.9936C52.7182 37.6704 53.7522 38.48 54.6608 39.4144C55.5695 40.3472 56.3528 41.4096 57.0108 42.6048Z" fill="#DDDDDD"/>
<path fill-rule="evenodd" clip-rule="evenodd" d="M12.5333 96H47C72.9597 96 94 74.5104 94 48.0032V48C94 21.4896 72.9597 0 47 0C34.5293 0 22.5757 5.05758 13.7711 14.0592C4.95073 23.0608 0 35.2704 0 48V83.2C0 90.2688 5.60867 96 12.5333 96ZM64.4215 29.464C62.5415 27.5184 59.9721 26.4176 57.3088 26.4032C54.6141 26.3888 52.029 27.472 50.1333 29.4096C44.2583 35.3968 31.3645 48.552 26.0692 53.9488C24.1422 55.9008 22.7638 58.3248 22.0431 60.9872L20.6015 66.2864C19.9905 68.5088 20.6015 70.8928 22.1995 72.5248C23.7975 74.1568 26.1321 74.784 28.3098 74.1664C30.0644 73.6672 31.9755 73.1296 33.5108 72.6912C36.1115 71.9536 38.4774 70.544 40.3887 68.5968C45.6527 63.2352 58.4525 50.1904 64.3745 44.1552C68.3225 40.1168 68.3692 33.5744 64.4525 29.4912L64.4215 29.464ZM46.8589 41.7952L30.4873 58.4784C29.3436 59.6496 28.5132 61.104 28.0745 62.7008L26.6333 68L31.8348 66.5248C33.4014 66.0816 34.8113 65.2368 35.9706 64.0688L52.3108 47.4048C51.8095 46.0272 51.1204 44.8624 50.2117 43.9248C49.3031 42.9888 48.1749 42.288 46.8589 41.7952ZM57.0108 42.6048L59.9407 39.6256C61.4447 38.0832 61.4761 35.5952 60.0191 34.0192L59.972 33.968C59.2514 33.2288 58.2801 32.808 57.2617 32.8032C56.2591 32.7984 55.2721 33.2064 54.5671 33.9392L51.5589 36.9936C52.7182 37.6704 53.7522 38.48 54.6608 39.4144C55.5695 40.3472 56.3528 41.4096 57.0108 42.6048Z" fill="black" fill-opacity="0.2"/>
</svg>
